<svg width="3075" height="2575" viewBox="0 0 3075 2575" fill="none" xmlns="http://www.w3.org/2000/svg">
<mask id="mask0_2337_84252" style="mask-type:alpha" maskUnits="userSpaceOnUse" x="0" y="0" width="3075" height="2575">
<rect width="3075" height="2575" fill="#D9D9D9"/>
</mask>
<g mask="url(#mask0_2337_84252)">
<g opacity="0.3" filter="url(#filter0_f_2337_84252)">
<path d="M2826.66 1826.42C2916.45 1670.9 2956.99 1489.49 2945.38 1295.16C2933.76 1100.83 2870.28 898.366 2759.47 702.237L1345.7 971.391L2826.66 1826.42Z" fill="#00D1FF"/>
</g>
<g opacity="0.3" filter="url(#filter1_f_2337_84252)">
<path d="M350.255 169.112C275.698 298.248 242.04 448.872 251.684 610.227C261.327 771.582 314.035 939.687 406.043 1102.53L1579.91 879.053L350.255 169.112Z" fill="#ED1EFF"/>
</g>
<g filter="url(#filter2_f_2337_84252)">
<path d="M1978.33 1838.52C1978.33 1817.39 1971.79 1796.53 1959.16 1777.41C1946.53 1758.3 1928.14 1741.41 1905.29 1727.94L1776.95 1838.52H1978.33Z" fill="#00D1FF"/>
</g>
<g filter="url(#filter3_f_2337_84252)">
<path d="M1579.13 1871.28C1579.13 1892.4 1585.67 1913.27 1598.3 1932.38C1610.93 1951.5 1629.32 1968.39 1652.17 1981.85L1780.51 1871.28L1579.13 1871.28Z" fill="#ED1EFF"/>
</g>
<g filter="url(#filter4_f_2337_84252)">
<path d="M966.899 2135.47C966.899 2173.69 978.742 2211.43 1001.58 2246.01C1024.42 2280.59 1057.7 2311.14 1099.03 2335.5L1331.18 2135.47L966.899 2135.47Z" fill="#1AD4FF"/>
</g>
</g>
<defs>
<filter id="filter0_f_2337_84252" x="1045.7" y="402.237" width="2201.62" height="1724.19" filterUnits="userSpaceOnUse" color-interpolation-filters="sRGB">
<feFlood flood-opacity="0" result="BackgroundImageFix"/>
<feBlend mode="normal" in="SourceGraphic" in2="BackgroundImageFix" result="shape"/>
<feGaussianBlur stdDeviation="150" result="effect1_foregroundBlur_2337_84252"/>
</filter>
<filter id="filter1_f_2337_84252" x="-49.9307" y="-130.888" width="1929.84" height="1533.42" filterUnits="userSpaceOnUse" color-interpolation-filters="sRGB">
<feFlood flood-opacity="0" result="BackgroundImageFix"/>
<feBlend mode="normal" in="SourceGraphic" in2="BackgroundImageFix" result="shape"/>
<feGaussianBlur stdDeviation="150" result="effect1_foregroundBlur_2337_84252"/>
</filter>
<filter id="filter2_f_2337_84252" x="1476.95" y="1427.94" width="801.387" height="710.578" filterUnits="userSpaceOnUse" color-interpolation-filters="sRGB">
<feFlood flood-opacity="0" result="BackgroundImageFix"/>
<feBlend mode="normal" in="SourceGraphic" in2="BackgroundImageFix" result="shape"/>
<feGaussianBlur stdDeviation="150" result="effect1_foregroundBlur_2337_84252"/>
</filter>
<filter id="filter3_f_2337_84252" x="1279.13" y="1571.28" width="801.387" height="710.578" filterUnits="userSpaceOnUse" color-interpolation-filters="sRGB">
<feFlood flood-opacity="0" result="BackgroundImageFix"/>
<feBlend mode="normal" in="SourceGraphic" in2="BackgroundImageFix" result="shape"/>
<feGaussianBlur stdDeviation="150" result="effect1_foregroundBlur_2337_84252"/>
</filter>
<filter id="filter4_f_2337_84252" x="654.898" y="1823.47" width="988.277" height="824.028" filterUnits="userSpaceOnUse" color-interpolation-filters="sRGB">
<feFlood flood-opacity="0" result="BackgroundImageFix"/>
<feBlend mode="normal" in="SourceGraphic" in2="BackgroundImageFix" result="shape"/>
<feGaussianBlur stdDeviation="156" result="effect1_foregroundBlur_2337_84252"/>
</filter>
</defs>
</svg>