<svg width="24" height="24" viewBox="0 0 24 24" fill="none" xmlns="http://www.w3.org/2000/svg">
<path d="M9.37553 10.068C8.68762 10.068 8.14453 10.668 8.14453 11.4C8.14453 12.132 8.69969 12.732 9.37553 12.732C10.0634 12.732 10.6065 12.132 10.6065 11.4C10.6186 10.668 10.0634 10.068 9.37553 10.068ZM13.7806 10.068C13.0926 10.068 12.5496 10.668 12.5496 11.4C12.5496 12.132 13.1047 12.732 13.7806 12.732C14.4685 12.732 15.0115 12.132 15.0115 11.4C15.0115 10.668 14.4685 10.068 13.7806 10.068Z" fill="#00D1FF"/>
<path d="M19.6459 0H3.47406C2.11031 0 1 1.104 1 2.472V18.696C1 20.064 2.11031 21.168 3.47406 21.168H17.1598L16.5202 18.948L18.065 20.376L19.5253 21.72L22.12 24V2.472C22.12 1.104 21.0097 0 19.6459 0ZM14.9875 15.672C14.9875 15.672 14.553 15.156 14.1909 14.7C15.7719 14.256 16.3754 13.272 16.3754 13.272C15.8805 13.596 15.4099 13.824 14.9875 13.98C14.384 14.232 13.8048 14.4 13.2375 14.496C12.0789 14.712 11.0169 14.652 10.1118 14.484C9.42386 14.352 8.8325 14.16 8.33769 13.968C8.06011 13.86 7.7584 13.728 7.45669 13.56C7.42048 13.536 7.38427 13.524 7.34807 13.5C7.32393 13.488 7.31186 13.476 7.29979 13.464C7.08256 13.344 6.96187 13.26 6.96187 13.26C6.96187 13.26 7.54117 14.22 9.07387 14.676C8.71182 15.132 8.26528 15.672 8.26528 15.672C5.59813 15.588 4.58437 13.848 4.58437 13.848C4.58437 9.984 6.32224 6.852 6.32224 6.852C8.06011 5.556 9.71351 5.592 9.71351 5.592L9.83419 5.736C7.66185 6.36 6.66016 7.308 6.66016 7.308C6.66016 7.308 6.92567 7.164 7.37221 6.96C8.66354 6.396 9.68937 6.24 10.1118 6.204C10.1842 6.192 10.2445 6.18 10.3169 6.18C11.0531 6.084 11.8859 6.06 12.7548 6.156C13.9013 6.288 15.1323 6.624 16.3874 7.308C16.3874 7.308 15.434 6.408 13.3824 5.784L13.5513 5.592C13.5513 5.592 15.2047 5.556 16.9426 6.852C16.9426 6.852 18.6805 9.984 18.6805 13.848C18.6805 13.848 17.6546 15.588 14.9875 15.672Z" fill="#00D1FF"/>
</svg>
