<svg width="1309" height="842" viewBox="0 0 1309 842" fill="none" xmlns="http://www.w3.org/2000/svg">
<mask id="mask0_3_12912" style="mask-type:alpha" maskUnits="userSpaceOnUse" x="0" y="0" width="1309" height="842">
<rect width="1309" height="842" fill="#C4C4C4"/>
</mask>
<g mask="url(#mask0_3_12912)">
<path d="M1 30C1 13.9837 13.9837 1 30 1H1279C1295.02 1 1308 13.9837 1308 30V841H1V30Z" fill="#10104E" stroke="url(#paint0_linear_3_12912)" stroke-width="2"/>
<line x1="98.4583" y1="52.0066" x2="98.4582" y2="690.194" stroke="white" stroke-opacity="0.11" stroke-width="0.5" stroke-dasharray="2 5"/>
<line x1="184.943" y1="52.0066" x2="184.943" y2="690.194" stroke="white" stroke-opacity="0.11" stroke-width="0.5" stroke-dasharray="2 5"/>
<line x1="271.428" y1="52.0066" x2="271.428" y2="690.194" stroke="white" stroke-opacity="0.11" stroke-width="0.5" stroke-dasharray="2 5"/>
<line x1="357.914" y1="52.0066" x2="357.914" y2="690.194" stroke="white" stroke-opacity="0.11" stroke-width="0.5" stroke-dasharray="2 5"/>
<line x1="444.399" y1="52.0066" x2="444.399" y2="690.194" stroke="white" stroke-opacity="0.11" stroke-width="0.5" stroke-dasharray="2 5"/>
<line x1="530.884" y1="52.0066" x2="530.884" y2="690.194" stroke="white" stroke-opacity="0.11" stroke-width="0.5" stroke-dasharray="2 5"/>
<line x1="617.369" y1="52.0066" x2="617.369" y2="690.194" stroke="white" stroke-opacity="0.11" stroke-width="0.5" stroke-dasharray="2 5"/>
<line x1="703.854" y1="52.0066" x2="703.854" y2="690.194" stroke="white" stroke-opacity="0.11" stroke-width="0.5" stroke-dasharray="2 5"/>
<line x1="790.339" y1="52.0066" x2="790.339" y2="690.194" stroke="white" stroke-opacity="0.11" stroke-width="0.5" stroke-dasharray="2 5"/>
<line x1="876.824" y1="52.0066" x2="876.824" y2="690.194" stroke="white" stroke-opacity="0.11" stroke-width="0.5" stroke-dasharray="2 5"/>
<line x1="963.31" y1="52.0066" x2="963.31" y2="690.194" stroke="white" stroke-opacity="0.11" stroke-width="0.5" stroke-dasharray="2 5"/>
<line x1="1049.79" y1="52.0066" x2="1049.79" y2="690.194" stroke="white" stroke-opacity="0.11" stroke-width="0.5" stroke-dasharray="2 5"/>
<line x1="11.7231" y1="572.452" x2="1309" y2="572.452" stroke="white" stroke-opacity="0.11" stroke-width="0.5" stroke-dasharray="2 5"/>
<line x1="-0.384766" y1="485.308" x2="1309" y2="485.308" stroke="white" stroke-opacity="0.11" stroke-width="0.5" stroke-dasharray="2 5"/>
<line x1="-0.384766" y1="398.598" x2="1309" y2="398.598" stroke="white" stroke-opacity="0.11" stroke-width="0.5" stroke-dasharray="2 5"/>
<line x1="-0.384766" y1="311.887" x2="1309" y2="311.887" stroke="white" stroke-opacity="0.11" stroke-width="0.5" stroke-dasharray="2 5"/>
<line x1="-0.384766" y1="225.177" x2="1309" y2="225.177" stroke="white" stroke-opacity="0.11" stroke-width="0.5" stroke-dasharray="2 5"/>
<line x1="-0.384766" y1="138.467" x2="1309" y2="138.467" stroke="white" stroke-opacity="0.11" stroke-width="0.5" stroke-dasharray="2 5"/>
<line x1="11.7231" y1="52.1901" x2="1309" y2="52.19" stroke="white" stroke-opacity="0.11" stroke-width="0.5" stroke-dasharray="2 5"/>
<line x1="98.4583" y1="52.0066" x2="98.4582" y2="690.194" stroke="white" stroke-opacity="0.11" stroke-width="0.5" stroke-dasharray="2 5"/>
<line x1="184.943" y1="52.0066" x2="184.943" y2="690.194" stroke="white" stroke-opacity="0.11" stroke-width="0.5" stroke-dasharray="2 5"/>
<line x1="271.428" y1="52.0066" x2="271.428" y2="690.194" stroke="white" stroke-opacity="0.11" stroke-width="0.5" stroke-dasharray="2 5"/>
<line x1="357.914" y1="52.0066" x2="357.914" y2="690.194" stroke="white" stroke-opacity="0.11" stroke-width="0.5" stroke-dasharray="2 5"/>
<line x1="444.399" y1="52.0066" x2="444.399" y2="690.194" stroke="white" stroke-opacity="0.11" stroke-width="0.5" stroke-dasharray="2 5"/>
<line x1="530.884" y1="52.0066" x2="530.884" y2="690.194" stroke="white" stroke-opacity="0.11" stroke-width="0.5" stroke-dasharray="2 5"/>
<line x1="617.369" y1="52.0066" x2="617.369" y2="690.194" stroke="white" stroke-opacity="0.11" stroke-width="0.5" stroke-dasharray="2 5"/>
<line x1="703.854" y1="52.0066" x2="703.854" y2="690.194" stroke="white" stroke-opacity="0.11" stroke-width="0.5" stroke-dasharray="2 5"/>
<line x1="790.339" y1="52.0066" x2="790.339" y2="690.194" stroke="white" stroke-opacity="0.11" stroke-width="0.5" stroke-dasharray="2 5"/>
<line x1="876.824" y1="52.0066" x2="876.824" y2="690.194" stroke="white" stroke-opacity="0.11" stroke-width="0.5" stroke-dasharray="2 5"/>
<line x1="963.31" y1="70.0007" x2="963.31" y2="708.188" stroke="white" stroke-opacity="0.11" stroke-width="0.5" stroke-dasharray="2 5"/>
<line x1="1049.79" y1="52.0066" x2="1049.79" y2="690.194" stroke="white" stroke-opacity="0.11" stroke-width="0.5" stroke-dasharray="2 5"/>
<line x1="1136.25" y1="52" x2="1136.25" y2="708" stroke="white" stroke-opacity="0.11" stroke-width="0.5" stroke-dasharray="2 5"/>
<line x1="1223.25" y1="52" x2="1223.25" y2="708" stroke="white" stroke-opacity="0.11" stroke-width="0.5" stroke-dasharray="2 5"/>
<line x1="11.7231" y1="572.452" x2="1309" y2="572.452" stroke="white" stroke-opacity="0.11" stroke-width="0.5" stroke-dasharray="2 5"/>
<line x1="-0.384766" y1="485.308" x2="1309" y2="485.308" stroke="white" stroke-opacity="0.11" stroke-width="0.5" stroke-dasharray="2 5"/>
<line x1="-0.384766" y1="398.598" x2="1309" y2="398.598" stroke="white" stroke-opacity="0.11" stroke-width="0.5" stroke-dasharray="2 5"/>
<line x1="-0.384766" y1="311.887" x2="1309" y2="311.887" stroke="white" stroke-opacity="0.11" stroke-width="0.5" stroke-dasharray="2 5"/>
<line x1="-0.384766" y1="225.177" x2="1309" y2="225.177" stroke="white" stroke-opacity="0.11" stroke-width="0.5" stroke-dasharray="2 5"/>
<line x1="-0.384766" y1="138.467" x2="1309" y2="138.467" stroke="white" stroke-opacity="0.11" stroke-width="0.5" stroke-dasharray="2 5"/>
<line x1="11.7231" y1="52.1901" x2="1309" y2="52.19" stroke="white" stroke-opacity="0.11" stroke-width="0.5" stroke-dasharray="2 5"/>
<path opacity="0.2" d="M-65 841.742C414.654 841.742 894.307 841.742 1373.96 841.742" stroke="url(#paint1_linear_3_12912)" stroke-opacity="0.25" stroke-width="2" stroke-miterlimit="10"/>
<path opacity="0.2" d="M-64.9999 831.175C177.88 831.253 420.649 829.364 663.474 827.227C768.538 826.296 874.322 826.602 979.376 828.562C1110.88 831.012 1242.45 828.704 1373.92 831.175" stroke="url(#paint2_linear_3_12912)" stroke-opacity="0.25" stroke-width="2" stroke-miterlimit="10"/>
<path opacity="0.2" d="M-64.9998 820.763C3.8202 820.764 72.6602 821.14 141.47 820.955C202.97 820.792 264.32 817.248 325.8 816.638C440.315 815.501 554.812 816.822 669.32 815.48C770.956 814.287 873.642 811.127 975.209 815.949C1034.41 818.789 1092.99 820.082 1152.24 821.254C1226.19 822.717 1300.04 818.747 1373.96 820.764" stroke="url(#paint3_linear_3_12912)" stroke-opacity="0.25" stroke-width="2" stroke-miterlimit="10"/>
<path opacity="0.5" d="M-64.9998 810.495C2.8302 810.495 70.8402 811.305 138.65 810.431C202.38 809.607 265.73 803.834 329.41 802.349C444.142 799.672 557.98 807.321 672.597 805.957C773.455 804.778 872.883 795.205 973.85 803.77C1032.87 808.776 1090.06 812.697 1149.5 813.84C1224.45 815.26 1299.03 808.35 1373.96 810.495" stroke="url(#paint4_linear_3_12912)" stroke-opacity="0.25" stroke-width="2" stroke-miterlimit="10"/>
<path opacity="0.5" d="M-64.9998 800.424C1.6002 800.424 68.6902 801.717 135.25 799.934C201.8 798.152 267.4 789.949 333.75 787.301C394.068 784.893 453.536 785.539 513.532 790.78C567.303 795.482 619.536 798.876 673.747 798.365C721.262 797.911 765.78 792.783 812.706 788.004C866.407 782.528 921.697 785.085 974.899 792.059C1033.46 799.743 1088.69 807.093 1148.48 807.931C1223.91 808.996 1298.49 798.585 1373.96 800.424" stroke="url(#paint5_linear_3_12912)" stroke-opacity="0.25" stroke-width="2" stroke-miterlimit="10"/>
<path opacity="0.5" d="M-64.9998 790.497C0.160207 790.497 66.3202 792.237 131.37 789.453C200.88 786.484 269.21 775.732 338.57 771.699C398.121 768.19 458.071 770.595 516.69 778.843C569.022 786.101 619.616 792.584 673.107 792.286C722.641 792.009 767.459 783.097 815.544 775.889C870.125 767.707 924.136 770.811 977.887 780.732C1035.5 791.384 1088.68 802.861 1148.88 803.166C1224.44 803.557 1298.28 789.304 1373.96 790.504" stroke="url(#paint6_linear_3_12912)" stroke-opacity="0.25" stroke-width="2" stroke-miterlimit="10"/>
<path opacity="0.5" d="M-64.9998 780.724C-1.3798 780.682 63.8102 782.855 127.21 779.056C200 774.731 271.11 761.387 343.62 755.812C404.481 751.139 460.72 755.485 519.418 767.224C569.672 777.28 618.347 787.35 671.058 787.372C723.181 787.372 769.547 773.985 819.012 764.213C875.361 753.085 927.323 756.323 982.384 769.767C1038.42 783.445 1089.88 799.594 1150.41 799.239C1225.86 798.756 1298.31 780.398 1373.96 780.725" stroke="url(#paint7_linear_3_12912)" stroke-opacity="0.25" stroke-width="2" stroke-miterlimit="10"/>
<path d="M-65 771.109C-2.98004 771.045 61.22 773.46 122.86 768.787C198.99 763.02 272.76 747.098 348.61 739.911C410.317 734.067 463.878 740.316 521.626 755.954C569.272 768.858 616.068 782.841 667.921 783.281C722.721 783.75 772.125 765.364 822.809 752.986C881.337 738.69 931.31 741.729 987.87 759.15C1041.73 775.739 1091.95 797.037 1152.75 795.844C1227.93 794.367 1298.47 771.791 1373.94 771.109" stroke="url(#paint8_linear_3_12912)" stroke-opacity="0.25" stroke-width="2" stroke-miterlimit="10"/>
<path opacity="0.5" d="M-64.9999 761.649C-4.56992 761.564 58.6301 764.135 118.61 758.688C197.99 751.48 274.42 733.058 353.44 724.266C416.392 717.257 466.916 725.282 523.445 745.039C568.153 760.662 613.06 778.708 664.193 779.659C721.672 780.717 775.043 756.835 826.896 742.155C854.056 734.507 882.686 727.341 912.294 728.989C941.273 730.608 968.714 739.279 994.055 748.874C1045.14 768.169 1094.9 794.729 1155.69 792.698C1230.53 790.191 1298.72 763.411 1373.97 761.671" stroke="url(#paint9_linear_3_12912)" stroke-opacity="0.25" stroke-width="2" stroke-miterlimit="10"/>
<path d="M-64.9499 752.353C-5.98987 752.247 56.1801 754.882 114.52 748.803C196.93 740.238 275.75 719.437 357.69 709.125C422.088 701.015 469.694 710.666 524.694 734.493C566.394 752.559 609.423 774.638 660.096 776.137C720.053 777.905 778.011 748.405 830.853 731.709C858.533 722.959 889.061 713.734 919.979 715.765C948.958 717.669 976.108 728.066 1000.34 738.846C1048.66 760.35 1097.91 792.272 1158.85 789.424C1233.37 785.93 1298.93 755.081 1373.98 752.353" stroke="url(#paint10_linear_3_12912)" stroke-opacity="0.25" stroke-width="2" stroke-miterlimit="10"/>
<path opacity="0.5" d="M-64.9397 743.221C-7.38974 743.093 53.8602 745.728 110.71 739.201C195.81 729.422 276.75 706.427 361.23 694.738C393.4 690.292 423.888 687.721 455.395 695.519C481.066 701.875 503.65 713.032 525.434 724.309C564.406 744.471 605.546 770.328 656.1 772.352C718.255 774.845 780.87 739.997 834.571 721.596C862.731 711.945 895.137 700.767 927.234 703.132C956.343 705.262 983.134 717.243 1006.33 729.074C1052.07 752.396 1100.74 789.311 1162 785.739C1236.26 781.399 1299.1 746.729 1374.02 743.186" stroke="url(#paint11_linear_3_12912)" stroke-opacity="0.25" stroke-width="2" stroke-miterlimit="10"/>
<path opacity="0.5" d="M-64.9299 734.237C-8.58985 734.102 51.8402 736.723 107.38 729.898C194.63 719.174 277.11 694.205 363.72 681.415C395.997 676.65 426.395 673.695 457.743 682.544C483.174 689.766 504.849 702.159 525.574 714.544C562.257 736.438 601.679 765.541 652.482 767.991C684.949 769.561 717.595 757.523 745.635 747.333C776.742 736.027 806.651 723.144 837.748 711.824C866.328 701.427 900.303 688.673 933.479 691.336C962.798 693.686 989.169 706.888 1011.53 719.6C1055.18 744.456 1102.93 785.547 1164.78 781.385C1238.91 776.414 1299.12 738.292 1374.03 734.209" stroke="url(#paint12_linear_3_12912)" stroke-opacity="0.25" stroke-width="2" stroke-miterlimit="10"/>
<path opacity="0.5" d="M-64.9198 725.416C-9.58984 725.281 50.2003 727.909 104.67 720.956C193.46 709.629 276.9 682.955 364.96 669.37C397.087 664.399 427.715 661.224 458.743 670.705C484.145 678.467 505.169 691.925 525.145 705.162C560.3 728.449 598.232 759.966 649.655 762.686C683.011 764.433 716.607 751.394 745.086 740.614C777.233 728.434 808.041 714.572 840.187 702.379C869.167 691.378 904.141 677.622 938.207 680.427C967.835 682.87 993.757 696.896 1015.51 710.339C1057.81 736.466 1104.1 780.504 1166.94 776.065C1241.07 770.832 1298.98 729.649 1374.04 725.445" stroke="url(#paint13_linear_3_12912)" stroke-opacity="0.25" stroke-width="2" stroke-miterlimit="10"/>
<path opacity="0.5" d="M-64.8999 716.753C-10.3499 716.639 49.0701 719.317 102.74 712.421C192.28 700.916 275.95 672.843 364.69 658.889C396.376 653.917 427.574 650.679 458.162 660.224C483.773 668.213 504.508 682.395 524.114 696.194C558.709 720.581 595.523 753.362 648.025 756.004C682.12 757.722 715.806 744.549 744.685 733.278C777.511 720.495 808.889 705.923 841.705 693.126C871.054 681.678 906.178 667.702 940.943 670.486C970.922 672.886 996.403 687.167 1017.89 701.186C1059.86 728.563 1103.94 773.715 1168.25 769.319C1242.57 764.242 1298.73 720.524 1374.1 716.767" stroke="url(#paint14_linear_3_12912)" stroke-opacity="0.25" stroke-width="2" stroke-miterlimit="10"/>
<path d="M-64.8898 708.231C-10.5398 707.989 48.6902 711 102.13 703.97C191.07 692.245 273.67 663.334 361.7 649.052C393.299 643.932 424.477 640.864 455.045 650.295C481.026 658.327 502.171 672.68 522.066 686.649C557.301 711.391 594.504 744.591 647.696 747.687C682.031 749.683 715.517 736.673 744.526 725.225C777.402 712.243 808.719 697.386 841.586 684.397C871.074 672.736 906.019 658.952 941.044 661.935C971.222 664.506 996.554 678.815 1018.08 692.99C1060.22 720.751 1103.46 765.307 1168.28 761.166C1242.81 756.422 1298.39 711.511 1374.07 708.231" stroke="url(#paint15_linear_3_12912)" stroke-opacity="0.25" stroke-width="2" stroke-miterlimit="10"/>
<path d="M-64.8799 699.9C-10.2999 699.46 48.7501 703.259 102.38 695.739C189.74 683.488 270.48 654.102 356.91 639.316C388.882 633.841 419.241 630.993 450.248 640.488C476.699 648.577 498.593 662.78 519.218 676.628C555.622 701.101 594.394 734.635 647.586 738.86C681.711 741.573 715.317 728.527 744.076 717.086C776.553 704.168 807.4 689.298 839.867 676.365C869.296 664.641 904.24 650.963 939.215 654.507C969.303 657.553 995.005 672.069 1016.83 686.088C1059.19 713.287 1103.68 757.005 1167.72 752.985C1242.43 748.291 1298.19 703.125 1374.05 699.9" stroke="url(#paint16_linear_3_12912)" stroke-opacity="0.25" stroke-width="2" stroke-miterlimit="10"/>
<path d="M-64.86 691.713C-9.97002 691.187 48.92 696.045 102.88 688.084C188.46 675.457 267.09 645.687 351.7 630.56C383.947 624.779 413.596 622.202 444.953 631.576C471.814 639.608 494.588 653.442 515.982 667.183C553.605 691.329 594.166 724.742 647.307 729.99C681.123 733.335 714.469 720.559 742.968 709.168C774.895 696.385 805.093 681.607 837 668.831C866.339 657.085 900.954 643.798 935.769 647.846C965.887 651.354 992.048 665.934 1014.36 679.803C1057.28 706.434 1103.23 749.059 1166.78 745.096C1241.82 740.423 1297.89 694.965 1374.08 691.755" stroke="url(#paint17_linear_3_12912)" stroke-opacity="0.25" stroke-width="2" stroke-miterlimit="10"/>
<path d="M-64.84 683.68C-9.57 683.176 49.29 689.319 103.63 680.953C187.25 668.092 263.59 638.017 346.21 622.628C378.59 616.598 407.679 614.333 439.296 623.437C466.636 631.306 490.259 644.742 512.483 658.235C551.675 681.948 593.655 714.878 646.946 721.092C680.362 724.984 713.118 712.762 741.338 701.449C772.565 688.922 801.994 674.271 833.202 661.729C862.431 649.976 896.376 637.349 930.981 641.845C961.239 645.786 987.94 660.309 1010.92 673.987C1054.7 700.028 1102.29 741.346 1165.5 737.405C1241 732.696 1297.5 686.933 1374.15 683.702" stroke="url(#paint18_linear_3_12912)" stroke-opacity="0.25" stroke-width="2" stroke-miterlimit="10"/>
<path d="M-64.8298 675.805C-9.10975 675.407 49.7303 683.027 104.56 674.299C186.08 661.325 260 630.979 340.49 615.505C372.84 609.27 401.534 607.331 433.311 616.037C461.141 623.665 485.593 636.632 508.727 649.713C549.697 672.886 592.956 705.028 646.447 712.137C711.001 720.723 776.234 676.039 828.546 654.976C857.665 643.244 890.691 631.491 924.996 636.412C955.494 640.794 982.754 655.175 1006.53 668.647C1051.42 694.078 1100.78 733.918 1163.83 729.955C1239.89 725.183 1296.93 679.086 1374.13 675.805" stroke="url(#paint19_linear_3_12912)" stroke-opacity="0.25" stroke-width="2" stroke-miterlimit="10"/>
<path d="M-64.8099 668.092C-8.59985 667.872 50.2502 677.125 105.65 668.092C184.98 655.11 256.35 624.623 334.6 609.099C366.85 602.707 395.257 601.116 427.124 609.319C455.464 616.626 480.765 629.019 504.808 641.688C547.557 664.2 592.105 695.27 645.866 703.259C709.44 712.69 771.865 669.299 823.208 648.577C851.598 637.136 884.694 625.603 918.06 631.497C949.037 636.965 976.328 650.224 1001.45 663.717C1047.63 688.502 1098.89 726.73 1161.94 722.725C1238.65 717.86 1296.3 671.416 1374.15 668.042" stroke="url(#paint20_linear_3_12912)" stroke-opacity="0.25" stroke-width="2" stroke-miterlimit="10"/>
<path d="M-64.79 660.529C-8.04995 660.529 50.8601 671.558 106.88 662.191C183.95 649.301 252.7 618.686 328.65 603.247C460.551 576.41 529.361 675.485 645.227 694.446C707.682 704.68 766.949 662.851 817.363 642.547C845.623 631.185 877.44 620.838 910.386 627.066C941.753 632.996 969.683 645.963 995.814 659.201C1043.43 683.346 1096.68 719.835 1159.87 715.765C1237.28 710.794 1295.61 663.987 1374.18 660.529" stroke="url(#paint21_linear_3_12912)" stroke-opacity="0.25" stroke-width="2" stroke-miterlimit="10"/>
<path d="M-64.7699 653.129C-7.47993 653.427 51.5301 666.267 108.21 656.623C182.99 643.904 249.11 613.218 322.69 597.914C451.866 571.055 530.54 665.379 644.537 685.697C705.913 696.648 761.623 656.673 811.117 636.76C839.257 625.44 869.685 616.456 902.161 622.968C933.948 629.36 962.588 642.001 989.768 654.961C1038.91 678.397 1094.19 713.131 1157.65 708.969C1235.82 703.849 1294.88 656.701 1374.21 653.129" stroke="url(#paint22_linear_3_12912)" stroke-opacity="0.25" stroke-width="2" stroke-miterlimit="10"/>
<path d="M-64.7499 645.885C-6.88991 646.489 52.2401 661.204 109.63 651.318C182.12 638.833 245.54 608.112 316.83 593.014C443.273 566.233 531.679 655.402 643.828 677.076C704.105 688.723 756.027 650.715 804.652 631.192C832.692 619.936 861.611 612.394 893.588 619.119C925.815 625.93 955.193 638.294 983.453 650.935C1034.18 673.66 1091.5 706.583 1155.27 702.329C1234.21 697.053 1294.05 649.55 1374.17 645.857" stroke="url(#paint23_linear_3_12912)" stroke-opacity="0.25" stroke-width="2" stroke-miterlimit="10"/>
<path d="M-64.7298 638.798C-6.30978 639.714 52.9902 656.311 111.14 646.219C181.39 634.019 242.19 603.283 311.19 588.44C434.94 561.816 532.799 645.63 643.109 668.604C702.297 680.932 750.322 644.948 798.117 625.802C826.037 614.617 853.547 608.559 884.995 615.526C917.671 622.77 947.819 634.821 977.138 647.15C1029.45 669.165 1088.79 700.27 1152.96 695.909C1232.73 690.484 1293.31 642.647 1374.23 638.798" stroke="url(#paint24_linear_3_12912)" stroke-opacity="0.25" stroke-width="2" stroke-miterlimit="10"/>
<path d="M-64.7099 631.874C-5.74988 633.095 53.74 651.531 112.57 641.269C180.66 629.388 238.89 598.659 305.69 584.108C426.995 557.69 533.928 636.05 642.449 660.309C700.557 673.305 744.676 639.345 791.692 620.54C819.492 609.426 845.653 604.852 876.5 612.018C909.626 619.702 940.534 631.476 970.902 643.464C1024.75 664.726 1086.07 694.077 1150.68 689.625C1231.25 684.05 1292.58 635.822 1374.29 631.888" stroke="url(#paint25_linear_3_12912)" stroke-opacity="0.25" stroke-width="2" stroke-miterlimit="10"/>
<path d="M-64.69 625.099C-5.13998 626.611 54.49 646.815 114.04 636.411C180.08 624.871 235.85 594.164 300.58 579.925C419.55 553.748 535.036 626.668 641.739 652.213C698.878 665.89 739.049 633.812 785.416 615.383C813.126 604.376 837.918 601.18 868.246 608.552C901.802 616.676 933.459 628.216 964.816 639.856C1020.15 660.387 1083.35 688.012 1148.41 683.446C1229.75 677.729 1291.79 629.154 1374.25 625.099" stroke="url(#paint26_linear_3_12912)" stroke-opacity="0.25" stroke-width="2" stroke-miterlimit="10"/>
<path d="M-64.6698 618.487C-4.55984 620.248 55.2402 642.114 115.46 631.604C179.61 620.412 233.08 589.704 295.86 575.799C356.77 562.306 421.559 577.539 478.448 593.816C533.308 609.518 585.461 630.112 641.14 644.351C697.56 658.782 733.544 628.216 779.56 610.263C840.666 586.437 903.251 616.655 959.181 636.248C1015.85 656.076 1080.83 682.054 1146.33 677.388C1228.38 671.551 1291.1 622.634 1374.29 618.48" stroke="url(#paint27_linear_3_12912)" stroke-opacity="0.25" stroke-width="2" stroke-miterlimit="10"/>
<path d="M-64.6499 612.025C-3.97994 613.992 55.83 637.37 116.82 626.782C179.26 615.93 230.6 585.244 291.69 571.644C352.04 558.194 418.542 572.802 475.7 587.708C531.67 602.309 584.941 621.59 640.611 636.76C696.281 651.929 728.798 622.862 774.225 605.164C833.942 581.906 899.135 614.396 954.095 632.612C1011.95 651.787 1078.59 676.188 1144.44 671.458C1227.13 665.514 1290.47 616.271 1374.27 612.025" stroke="url(#paint28_linear_3_12912)" stroke-opacity="0.25" stroke-width="2" stroke-miterlimit="10"/>
<path d="M-64.6299 605.726C-3.38992 607.856 56.37 632.541 118.07 621.889C179.02 611.371 228.47 580.699 287.95 567.362C347.83 553.976 415.853 567.987 473.272 581.658C530.231 595.229 584.571 613.353 640.151 629.452C666.372 637.044 685.588 637.356 710.94 627.563C731.545 619.602 748.973 608.041 769.548 600.023C796.998 589.314 818.862 589.612 847.611 597.573C882.156 607.153 915.812 618.168 949.708 628.87C1008.54 647.391 1076.62 670.372 1142.77 665.6C1226.03 659.592 1289.9 610.022 1374.3 605.726" stroke="url(#paint29_linear_3_12912)" stroke-opacity="0.25" stroke-width="2" stroke-miterlimit="10"/>
<path d="M-64.6099 599.575C-2.7999 601.706 56.78 627.57 119.2 616.882C178.94 606.648 226.7 575.863 284.98 562.867C344.56 549.579 413.825 563.009 471.473 575.65C529.122 588.291 584.472 605.477 639.872 622.521C665.473 630.396 684.19 631.511 709.322 621.768C729.247 614.041 745.875 602.636 765.751 594.852C793.051 584.157 814.576 585.294 842.825 593.517C877.54 603.623 911.716 614.616 946.251 625.02C1005.82 642.959 1075.23 664.662 1141.48 659.875C1225.2 653.832 1289.5 603.964 1374.31 599.639" stroke="url(#paint30_linear_3_12912)" stroke-opacity="0.25" stroke-width="2" stroke-miterlimit="10"/>
<path d="M-64.5899 593.596C-2.19988 595.669 57.0401 622.428 120.16 611.712C179.01 601.706 225.28 570.686 282.75 558.073C342.25 544.999 412.266 557.818 470.274 569.557C528.752 581.381 584.581 597.85 639.752 615.831C664.833 623.998 683.34 625.716 708.282 615.973C727.668 608.41 743.627 597.075 762.953 589.441C790.123 578.711 811.627 580.45 839.447 588.987C874.212 599.639 908.787 610.661 943.852 620.845C1003.81 638.265 1074.38 658.846 1140.58 654.095C1224.63 648.058 1289.24 597.906 1374.41 593.596" stroke="url(#paint31_linear_3_12912)" stroke-opacity="0.25" stroke-width="2" stroke-miterlimit="10"/>
<path d="M-64.5697 587.765C-1.60974 589.647 57.1202 617.053 120.94 606.308C179.18 596.5 224.45 565.345 281.23 552.882C340.54 539.872 411.477 552.413 469.635 563.421C528.712 574.606 584.792 590.627 639.702 609.582C664.374 618.104 682.981 620.163 707.793 610.356C726.779 602.849 742.238 591.508 761.194 583.931C788.265 573.108 810.069 575.153 837.559 584.08C872.254 595.343 907.089 606.443 942.543 616.456C1002.68 633.436 1074.07 653.094 1140 648.414C1224.25 642.441 1289.02 592.019 1374.39 587.765" stroke="url(#paint32_linear_3_12912)" stroke-opacity="0.25" stroke-width="2" stroke-miterlimit="10"/>
<path d="M-64.5398 582.084C-1.25983 583.774 57.0602 611.478 121.27 600.634C179.31 590.834 224.31 559.707 280.91 547.315C340.16 534.347 411.417 547.144 469.595 557.917C528.882 568.897 584.782 584.797 639.762 603.837C664.345 612.359 683.211 614.134 707.853 604.391C726.709 596.934 742.068 585.692 760.925 578.214C787.905 567.519 810.109 569.507 837.34 578.69C871.885 590.336 906.76 601.522 942.364 611.435C1002.21 628.103 1074.53 647.54 1139.95 642.683C1224.08 636.447 1289.27 586.878 1374.42 582.106" stroke="url(#paint33_linear_3_12912)" stroke-opacity="0.25" stroke-width="2" stroke-miterlimit="10"/>
<path d="M-64.5198 576.495C-1.10981 578.1 57.0502 605.988 121.41 595.016C179.36 585.131 224.59 554.267 281.23 541.953C340.48 529.07 411.577 542.428 469.665 553.273C528.762 564.309 584.422 580.181 639.782 598.318C692.184 615.483 718.155 589.086 761.314 572.625C788.295 562.334 810.639 564.209 837.619 573.427C872.014 585.18 906.829 596.337 942.423 606.137C1001.92 622.514 1075.18 642.043 1140.13 636.774C1223.9 629.971 1289.89 582.418 1374.47 576.602" stroke="url(#paint34_linear_3_12912)" stroke-opacity="0.25" stroke-width="2" stroke-miterlimit="10"/>
<path d="M-64.4998 570.991C-0.899794 572.539 57.1203 600.634 121.67 589.569C179.63 579.627 225.04 549.09 281.71 536.889C340.96 524.106 411.845 537.976 469.843 548.855C528.711 559.899 584.161 575.7 639.84 592.921C691.803 608.999 718.703 583.071 761.892 567.355C788.873 557.512 811.416 559.33 838.157 568.563C872.392 580.38 907.107 591.451 942.692 601.081C1001.95 617.124 1075.94 636.447 1140.35 630.823C1223.7 623.551 1290.5 578.065 1374.46 571.325" stroke="url(#paint35_linear_3_12912)" stroke-opacity="0.25" stroke-width="2" stroke-miterlimit="10"/>
<path d="M-64.4798 565.587C-0.659773 567.093 57.2703 595.414 122.06 584.3C179.95 574.372 225.63 544.183 282.34 532.11C341.59 519.54 412.245 533.758 470.133 544.644C528.721 555.652 584.051 571.332 639.931 587.602C691.524 602.608 719.343 577.255 762.642 562.271C789.693 552.918 812.406 554.736 838.947 563.961C872.992 575.799 907.638 586.743 943.162 596.146C1002.27 611.805 1076.71 630.653 1140.68 624.737C1223.62 617.074 1291.19 573.726 1374.51 566.155" stroke="url(#paint36_linear_3_12912)" stroke-opacity="0.25" stroke-width="2" stroke-miterlimit="10"/>
<path d="M-64.4598 560.275C-0.369757 561.767 57.4502 590.308 122.57 579.187C180.41 569.316 226.37 539.467 283.13 527.636C342.36 515.286 412.655 529.823 470.523 540.675C528.791 551.611 583.951 567.128 640.06 582.418C691.263 596.373 720.063 571.688 763.561 557.513C790.701 548.664 813.595 550.546 839.966 559.743C873.745 571.641 908.408 582.229 943.801 591.459C1002.86 606.684 1077.5 624.836 1141.11 618.651C1223.51 610.676 1291.91 569.514 1374.5 561.227" stroke="url(#paint37_linear_3_12912)" stroke-opacity="0.25" stroke-width="2" stroke-miterlimit="10"/>
<path d="M-64.4299 555.062C-0.0498491 556.554 57.7502 585.344 123.19 574.237C180.98 564.444 227.25 534.993 284.08 523.403C343.28 511.33 413.284 526.095 471.043 536.896C529.001 547.719 584.011 563.023 640.25 577.319C691.074 590.244 720.912 566.29 764.671 552.974C791.941 544.673 815.004 546.661 841.225 555.815C874.801 567.635 909.338 578.024 944.651 586.927C1003.74 601.678 1078.37 618.842 1141.64 612.493C1223.51 604.277 1292.69 565.367 1374.56 556.433" stroke="url(#paint38_linear_3_12912)" stroke-opacity="0.25" stroke-width="2" stroke-miterlimit="10"/>
<path d="M-64.4098 549.964C0.300172 551.462 58.0902 580.501 123.9 569.479C181.65 559.806 228.25 530.782 285.1 519.469C344.27 507.694 413.903 522.636 471.612 533.346C529.14 543.998 584.13 559.061 640.43 572.341C690.893 584.25 721.831 561.113 765.889 548.699C793.309 540.973 816.553 543.11 842.664 552.25C876.01 563.957 910.391 574.113 945.589 582.653C1004.78 596.856 1079.18 612.877 1142.18 606.379C1223.48 597.999 1293.41 561.383 1374.54 551.902" stroke="url(#paint39_linear_3_12912)" stroke-opacity="0.25" stroke-width="2" stroke-miterlimit="10"/>
<path d="M-64.3898 544.964C0.680192 546.498 58.5202 575.813 124.71 564.848C182.42 555.346 229.36 526.783 286.27 515.776C345.4 504.342 414.653 519.391 472.232 529.979C529.361 540.49 584.291 555.211 640.61 567.469C690.724 578.37 722.821 556.106 767.209 544.644C794.799 537.542 818.222 539.843 844.253 548.905C877.379 560.473 911.616 570.357 946.709 578.484C1006.09 592.14 1080.07 606.805 1142.84 600.193C1223.55 591.671 1294.2 557.434 1374.57 547.464" stroke="url(#paint40_linear_3_12912)" stroke-opacity="0.25" stroke-width="2" stroke-miterlimit="10"/>
<path d="M-64.37 540.078C1.08997 541.654 58.9199 571.254 125.6 560.438C183.27 551.078 230.58 522.998 287.54 512.331C346.63 501.274 415.452 516.372 472.951 526.826C529.68 537.145 584.56 551.497 640.83 562.718C690.604 572.66 723.93 551.305 768.667 540.83C796.447 534.332 820.05 536.882 846.021 545.802C878.915 557.194 912.991 566.776 947.948 574.464C1007.56 587.495 1080.94 600.648 1143.53 593.958C1223.64 585.436 1294.96 553.549 1374.57 543.167" stroke="url(#paint41_linear_3_12912)" stroke-opacity="0.25" stroke-width="2" stroke-miterlimit="10"/>
<path d="M-64.3498 535.313C1.52023 536.946 59.4102 566.83 126.51 556.163C184.21 547.023 231.89 519.426 288.92 509.129C347.95 498.476 416.292 513.567 473.791 523.865C530.1 533.963 584.94 547.904 641.15 558.08C690.584 567.036 725.209 546.675 770.317 537.237C798.296 531.385 822.069 534.183 848.021 543.06C880.675 554.253 914.58 563.5 949.387 570.707C1009.22 583.071 1081.87 594.604 1144.32 587.836C1223.8 579.265 1295.76 549.864 1374.61 539.126" stroke="url(#paint42_linear_3_12912)" stroke-opacity="0.25" stroke-width="2" stroke-miterlimit="10"/>
<path d="M-64.3298 530.69C1.95025 532.373 59.9102 562.541 127.6 552.052C185.21 543.118 233.28 516.06 290.38 506.154C349.34 495.92 417.212 510.976 474.581 521.067C530.48 530.924 585.281 544.403 641.37 553.543C690.495 561.554 726.489 542.18 771.946 533.829C800.126 528.637 824.088 531.698 850.05 540.511C882.457 551.48 916.181 560.367 950.817 567.065C1011.04 578.711 1082.79 588.441 1145.14 581.687C1224 573.165 1296.53 546.235 1374.63 535.192" stroke="url(#paint43_linear_3_12912)" stroke-opacity="0.25" stroke-width="2" stroke-miterlimit="10"/>
<path d="M-64.3099 526.144C2.45015 527.927 60.5202 558.386 128.69 548.095C186.29 539.41 234.78 512.892 291.92 503.398C350.83 493.619 418.191 508.589 475.48 518.51C530.96 528.118 585.72 541.086 641.66 549.189C690.494 556.291 727.907 537.961 773.704 530.725C802.094 526.215 826.236 529.603 852.238 538.295C884.399 549.018 917.936 557.52 952.385 563.684C1012.98 574.563 1083.73 582.425 1146 575.664C1224.24 567.178 1297.29 542.819 1374.65 531.52" stroke="url(#paint44_linear_3_12912)" stroke-opacity="0.25" stroke-width="2" stroke-miterlimit="10"/>
<path d="M-64.2898 521.748C2.95017 523.623 61.1202 554.373 129.86 544.31C187.41 535.881 236.29 509.924 293.53 500.862C352.36 491.545 419.2 506.409 476.398 516.109C531.479 525.448 586.169 537.869 641.929 544.935C690.514 551.092 729.376 533.871 775.522 527.714C804.112 523.9 828.424 527.621 854.515 536.236C886.426 546.692 919.769 554.783 954.014 560.381C1014.97 570.437 1084.64 576.346 1146.87 569.613C1224.51 561.226 1298.02 539.438 1374.67 527.912" stroke="url(#paint45_linear_3_12912)" stroke-opacity="0.25" stroke-width="2" stroke-miterlimit="10"/>
<path d="M-64.2698 517.487C3.44019 519.462 61.7602 550.503 131.03 540.681C188.59 532.522 237.88 507.14 295.19 498.526C353.94 489.699 420.25 504.413 477.408 513.887C532.099 522.956 586.709 534.78 642.289 540.816C690.664 546.064 731.005 529.965 777.482 524.944C806.281 521.826 830.763 525.903 856.954 534.389C888.617 544.575 921.763 552.248 955.793 557.271C1017.16 566.453 1085.64 570.345 1147.85 563.662C1224.8 555.382 1298.75 536.221 1374.69 524.504" stroke="url(#paint46_linear_3_12912)" stroke-opacity="0.25" stroke-width="2" stroke-miterlimit="10"/>
<path d="M-64.2499 513.362C3.95008 515.442 62.4201 546.739 132.26 537.216C189.82 529.34 239.52 504.534 296.9 496.389C355.57 488.08 421.338 502.61 478.427 511.842C532.748 520.627 587.258 531.819 642.599 536.832C690.804 541.2 732.614 526.244 779.39 522.359C808.369 519.952 833.041 524.397 859.332 532.777C890.749 542.673 923.695 549.908 957.491 554.331C1019.25 562.59 1086.52 564.43 1148.73 557.797C1225.12 549.658 1299.35 533.147 1374.64 521.259" stroke="url(#paint47_linear_3_12912)" stroke-opacity="0.25" stroke-width="2" stroke-miterlimit="10"/>
<path d="M-64.2299 509.385C4.4701 511.572 63.1101 543.188 133.51 533.914C191.06 526.322 241.2 502.113 298.65 494.471C357.22 486.659 422.438 501.026 479.517 510.002C533.478 518.524 587.869 529.028 642.979 533.026C691.094 536.52 734.333 522.729 781.469 519.987C810.658 518.29 835.43 523.126 861.971 531.393C893.145 540.994 925.89 547.779 959.44 551.59C1100.34 568.129 1238.41 540.227 1374.78 518.212" stroke="url(#paint48_linear_3_12912)" stroke-opacity="0.25" stroke-width="2" stroke-miterlimit="10"/>
<path d="M-64.2098 505.535C5.00025 507.843 63.8102 539.736 134.79 530.753C192.33 523.466 242.91 499.861 300.43 492.667C358.89 485.352 423.567 499.541 480.526 508.255C534.177 516.486 588.408 526.307 643.268 529.269C691.373 531.889 735.971 519.326 783.457 517.693C812.816 516.699 837.798 521.954 864.488 530.099C895.306 539.566 928.032 545.602 961.258 548.94C1098.57 562.739 1241.79 537.123 1374.75 515.257" stroke="url(#paint49_linear_3_12912)" stroke-opacity="0.25" stroke-width="2" stroke-miterlimit="10"/>
<path d="M-64.1897 501.842C5.53027 504.271 64.5202 536.442 136.07 527.756C193.63 520.747 244.63 497.773 302.21 491.062C360.58 484.266 424.697 498.263 481.595 506.686C534.957 514.604 588.998 523.73 643.608 525.725C691.804 527.486 737.661 516.11 785.506 515.634C815.035 515.343 840.176 521.01 867.077 529.056C897.695 538.21 930.201 543.728 963.148 546.469C1025.91 551.689 1089.56 547.243 1151.8 540.859C1226.49 533.196 1301.28 524.788 1374.77 512.452" stroke="url(#paint50_linear_3_12912)" stroke-opacity="0.25" stroke-width="2" stroke-miterlimit="10"/>
<path d="M-64.1698 498.298C5.46016 500.805 64.3702 533.032 135.85 525.093C193.18 518.701 244.28 496.622 301.42 489.925C359.17 483.157 421.998 496.587 478.397 504.697C532.918 512.509 588.148 521.236 643.958 522.33C693.502 523.303 741.777 512.551 791.211 513.808C821.05 514.568 845.922 521.499 873.272 529.197C901.682 537.194 931.68 541.774 962.018 543.94C1026.59 548.549 1090.64 541.753 1154.44 535.34C1228.09 527.94 1302.39 522.245 1374.82 509.874" stroke="url(#paint51_linear_3_12912)" stroke-opacity="0.25" stroke-width="2" stroke-miterlimit="10"/>
<path d="M-64.1598 494.911C5.95017 497.539 65.1002 530.036 137.11 522.402C194.45 516.323 245.95 494.826 303.18 488.619C360.82 482.398 423.147 495.636 479.466 503.483C533.727 511.053 588.747 519.107 644.267 519.107C694.101 519.107 743.446 509.782 793.29 512.161C823.168 513.582 848.25 520.91 875.81 528.445C904.03 536.158 933.828 540.255 963.907 541.875C1028.69 545.362 1091.62 536.392 1155.42 530.157C1228.59 523.005 1302.88 519.959 1374.8 507.431" stroke="url(#paint52_linear_3_12912)" stroke-opacity="0.25" stroke-width="2" stroke-miterlimit="10"/>
<path d="M-64.1399 491.687C6.50007 494.435 65.7701 527.195 138.39 519.859C195.75 514.064 247.65 493.171 304.96 487.447C362.48 481.687 424.317 494.833 480.606 502.424C534.567 509.718 589.378 517.047 644.608 516.01C694.801 515.065 745.115 507.14 795.379 510.627C825.297 512.707 850.579 520.427 878.319 527.799C906.299 535.234 935.957 538.849 965.756 539.921C1030.71 542.272 1092.6 531.172 1156.38 525.107C1229.09 518.19 1303.27 517.806 1374.77 505.123" stroke="url(#paint53_linear_3_12912)" stroke-opacity="0.25" stroke-width="2" stroke-miterlimit="10"/>
<path d="M-64.1199 488.627C7.01009 491.467 66.5201 524.504 139.66 517.474C197.03 511.956 249.33 491.631 306.73 486.418C364.13 481.205 425.465 494.173 481.605 501.502C535.436 508.533 589.987 515.173 644.917 513.092C695.55 511.174 746.723 504.669 797.407 509.25C827.385 511.956 852.847 520.094 880.847 527.295C908.846 534.496 938.125 537.593 967.644 538.132C1032.6 539.332 1093.67 526.152 1157.38 520.257C1229.67 513.568 1303.79 515.84 1374.81 502.972" stroke="url(#paint54_linear_3_12912)" stroke-opacity="0.25" stroke-width="2" stroke-miterlimit="10"/>
<path d="M-64.1099 485.729C7.5101 488.712 67.2301 521.947 140.89 515.243C198.29 509.995 250.97 490.288 308.45 485.516C365.69 480.765 426.644 493.647 482.684 500.728C536.355 507.503 590.606 513.447 645.266 510.343C696.4 507.439 748.332 502.347 799.465 508C829.354 511.309 855.115 519.874 883.315 526.911C910.995 533.814 940.273 536.47 969.472 536.492C1034.43 536.548 1094.72 521.351 1158.34 515.613C1230.28 509.122 1304.23 514.043 1374.81 500.969" stroke="url(#paint55_linear_3_12912)" stroke-opacity="0.25" stroke-width="2" stroke-miterlimit="10"/>
<path d="M-64.1 483.009C7.99999 486.091 67.8999 519.604 142.09 513.155C199.52 508.184 252.58 489.01 310.13 484.749C367.31 480.488 427.654 493.271 483.704 500.103C537.265 506.608 591.246 511.884 645.587 507.772C697.269 503.866 749.872 500.188 801.474 506.892C831.353 510.762 857.334 519.76 885.743 526.634C913.293 533.296 942.323 535.476 971.252 534.993C1036.11 533.921 1095.77 516.777 1159.3 511.174C1230.83 504.868 1304.59 512.438 1374.84 499.101" stroke="url(#paint56_linear_3_12912)" stroke-opacity="0.25" stroke-width="2" stroke-miterlimit="10"/>
<path d="M-64.0799 480.459C8.47013 483.648 68.5801 517.388 143.26 511.224C200.72 506.473 254.18 487.916 311.76 484.06C368.82 480.239 428.673 493.001 484.693 499.577C538.154 505.833 591.865 510.45 645.896 505.351C698.158 500.422 751.41 498.135 803.373 505.869C833.221 510.307 859.422 519.731 888.081 526.464C915.462 532.855 944.341 534.616 973.02 533.644C1037.7 531.463 1096.86 512.459 1160.28 506.977C1231.47 500.82 1305.01 511.018 1374.92 497.418" stroke="url(#paint57_linear_3_12912)" stroke-opacity="0.25" stroke-width="2" stroke-miterlimit="10"/>
<path d="M-64.0699 478.088C8.88014 481.376 69.2101 515.357 144.37 509.442C201.86 504.911 255.62 486.915 313.33 483.485C370.29 480.105 429.703 492.845 485.633 499.194C539.024 505.266 592.466 509.186 646.177 503.121C699.049 497.156 752.78 496.232 805.192 504.967C834.98 509.939 861.431 519.789 890.28 526.365C917.521 532.572 946.24 533.857 974.62 532.422C1039.07 529.163 1097.82 508.405 1161.12 502.993C1232.06 496.95 1305.3 509.761 1374.9 495.835" stroke="url(#paint58_linear_3_12912)" stroke-opacity="0.25" stroke-width="2" stroke-miterlimit="10"/>
<path d="M-64.0599 475.908C9.35015 479.274 69.8403 513.482 145.42 507.801C202.96 503.483 257.05 486.02 314.82 483.009C371.68 480.048 430.642 492.788 486.522 498.938C539.863 504.811 593.045 508.078 646.456 501.069C699.868 494.059 754.129 494.471 806.95 504.172C836.669 509.633 863.38 519.796 892.389 526.343C919.369 532.444 948.129 533.211 976.158 531.315C1040.35 527.054 1098.77 504.62 1161.93 499.279C1232.57 493.307 1305.6 508.71 1374.9 494.407" stroke="url(#paint59_linear_3_12912)" stroke-opacity="0.25" stroke-width="2" stroke-miterlimit="10"/>
<path d="M-63.9998 473.876C9.81021 477.313 70.4302 511.749 146.46 506.288C203.98 502.176 258.39 485.239 316.22 482.618C372.96 480.048 431.541 492.831 487.361 498.803C540.672 504.484 593.604 507.133 646.706 499.201C700.807 491.126 755.387 492.809 808.589 503.462C838.247 509.384 865.188 519.93 894.367 526.386C921.237 532.33 949.847 532.671 977.587 530.391C1007.86 527.898 1037.36 522.189 1066.42 515.854C1097.78 509.029 1130.05 498.618 1162.71 495.863C1233.11 489.919 1305.89 507.879 1374.91 493.15" stroke="url(#paint60_linear_3_12912)" stroke-opacity="0.25" stroke-width="2" stroke-miterlimit="10"/>
<path d="M-63.9999 472.101C10.1701 475.595 70.9001 510.251 147.37 504.974C204.93 500.997 259.64 484.529 317.54 482.299C374.19 480.09 432.351 492.951 488.12 498.775C541.432 504.328 594.154 506.352 646.946 497.525C701.636 488.378 756.576 491.282 810.168 502.858C839.696 509.249 866.867 520.115 896.196 526.478C922.956 532.28 951.436 532.238 978.906 529.567C1009.11 526.641 1038.45 520.435 1067.34 513.695C1098.47 506.437 1130.79 495.486 1163.44 492.71C1233.62 486.751 1306.17 507.233 1374.92 492" stroke="url(#paint61_linear_3_12912)" stroke-opacity="0.25" stroke-width="2" stroke-miterlimit="10"/>
<path d="M-63.9998 470.489C10.5102 474.039 71.4002 508.902 148.2 503.781C205.8 499.932 260.76 483.96 318.72 482.05C375.292 480.182 433.06 493.193 488.79 498.867C542.111 504.285 594.643 505.741 647.125 496.026C702.446 485.821 757.636 489.869 811.607 502.332C841.025 509.122 868.396 520.321 897.874 526.613C924.525 532.294 952.835 531.897 980.105 528.879C1010.24 525.541 1039.43 518.865 1068.17 511.756C1099.09 504.108 1131.45 492.674 1164.1 489.855C1234.05 483.818 1306.43 506.792 1374.95 491.012" stroke="url(#paint62_linear_3_12912)" stroke-opacity="0.25" stroke-width="2" stroke-miterlimit="10"/>
<path d="M-63.9998 469.075C10.8102 472.626 71.8102 507.73 148.94 502.73C206.61 498.987 261.85 483.456 319.87 481.858C376.381 480.296 433.79 493.498 489.459 499.058C542.801 504.378 595.183 505.294 647.345 494.748C703.235 483.449 758.565 488.562 812.916 501.849C842.235 509.029 869.785 520.52 899.383 526.755C925.944 532.344 954.154 531.634 981.164 528.296C1011.26 524.575 1040.29 517.473 1068.9 510.023C1099.65 502.006 1132.03 490.181 1164.72 487.298C1234.53 481.134 1306.73 506.544 1374.95 490.139" stroke="url(#paint63_linear_3_12912)" stroke-opacity="0.25" stroke-width="2" stroke-miterlimit="10"/>
<path d="M-63.9998 467.868C11.1002 471.419 72.1602 506.743 149.58 501.821C207.27 498.157 262.76 483.037 320.83 481.688C377.28 480.402 434.309 493.839 489.979 499.321C543.35 504.577 595.633 505.003 647.495 493.64C703.964 481.262 759.324 487.341 814.075 501.452C843.264 508.98 870.974 520.733 900.682 526.926C927.163 532.451 955.233 531.471 982.054 527.849C1012.11 523.78 1041.01 516.294 1069.5 508.532C1100.11 500.188 1132.46 488.058 1165.24 485.097C1234.9 478.741 1307.01 506.544 1374.96 489.414" stroke="url(#paint64_linear_3_12912)" stroke-opacity="0.25" stroke-width="2" stroke-miterlimit="10"/>
<path d="M-63.9998 466.859C10.7402 470.41 71.5902 505.734 148.57 501.153C209.39 497.538 268.19 481.212 329.56 481.545C382.037 481.829 434.689 494.08 486.521 499.349C541.592 504.945 594.304 504.789 647.635 492.809C706.772 479.557 762.182 486.524 819.181 502.282C844.733 509.341 869.075 518.971 894.817 525.583C922.057 532.578 951.965 531.896 979.995 528.012C1011.8 523.608 1042.25 515.229 1072.25 506.707C1102.49 498.085 1134.63 485.948 1167.24 483.108C1236.19 477.135 1307.9 506.621 1374.95 488.839" stroke="url(#paint65_linear_3_12912)" stroke-opacity="0.25" stroke-width="2" stroke-miterlimit="10"/>
<path d="M-63.9998 466.065C10.9402 469.566 71.8002 505.124 148.99 500.536C209.83 496.914 268.9 480.971 330.25 481.504C382.686 481.965 435.069 494.557 486.871 499.833C541.981 505.443 594.683 504.889 647.755 492.128C707.492 477.754 762.612 485.537 820.081 502.07C845.512 509.385 869.925 519.1 895.736 525.719C922.916 532.721 952.695 531.897 980.565 527.792C1012.35 523.112 1042.68 514.37 1072.59 505.621C1102.79 496.787 1134.92 484.515 1167.61 481.532C1236.43 475.297 1308.22 506.992 1374.96 488.35" stroke="url(#paint66_linear_3_12912)" stroke-opacity="0.25" stroke-width="2" stroke-miterlimit="10"/>
<path d="M-63.9998 465.496C11.0902 468.94 71.9003 504.711 149.3 500.053C210.16 496.388 269.36 480.786 330.79 481.489C383.206 482.085 435.338 495.081 487.121 500.401C542.261 506.082 595.043 505.18 647.775 491.651C708.091 476.184 762.772 484.621 820.73 501.849C846.102 509.384 870.574 519.199 896.405 525.896C923.566 532.933 953.084 532.046 980.934 527.749C1045.28 517.807 1102.93 486.68 1167.89 480.402C1236.59 473.762 1308.57 507.595 1374.96 488.015" stroke="url(#paint67_linear_3_12912)" stroke-opacity="0.25" stroke-width="2" stroke-miterlimit="10"/>
<path d="M-63.9999 465.135C11.2101 468.508 72.0001 504.492 149.49 499.72C210.36 495.963 269.76 480.666 331.16 481.483C383.586 482.193 435.488 495.643 487.251 501.055C542.411 506.821 595.373 505.656 647.805 491.396C708.651 474.843 762.722 483.769 821.23 501.694C846.392 509.385 870.924 519.576 896.815 526.01C924.315 532.834 952.945 532.281 981.094 527.792C1045.55 517.509 1102.88 486.354 1168.07 479.622C1236.68 472.52 1308.97 508.419 1374.92 487.803" stroke="url(#paint68_linear_3_12912)" stroke-opacity="0.25" stroke-width="2" stroke-miterlimit="10"/>
<path d="M-63.9999 464.999C11.2901 468.273 71.9701 504.47 149.54 499.52C210.41 495.635 269.89 480.594 331.41 481.475C383.846 482.227 435.548 496.246 487.301 501.786C542.461 507.687 595.703 506.331 647.825 491.353C709.141 473.72 762.452 482.966 821.519 501.572C875.48 518.56 919.938 537.898 981.044 527.941C1045.67 517.409 1102.73 486.517 1168.15 479.245C1236.68 471.625 1309.35 509.462 1375 487.767" stroke="url(#paint69_linear_3_12912)" stroke-opacity="0.25" stroke-width="2" stroke-miterlimit="10"/>
</g>
<defs>
<linearGradient id="paint0_linear_3_12912" x1="35.7" y1="842" x2="1407.14" y2="214.482" gradientUnits="userSpaceOnUse">
<stop stop-color="#8E2DE2"/>
<stop offset="0.902469" stop-color="#4B01E0"/>
</linearGradient>
<linearGradient id="paint1_linear_3_12912" x1="525.136" y1="840.867" x2="1151.65" y2="840.756" gradientUnits="userSpaceOnUse">
<stop stop-color="#00F0FF"/>
<stop offset="0.489583" stop-color="#4C02E1"/>
<stop offset="0.8125" stop-color="#FF1CF7"/>
</linearGradient>
<linearGradient id="paint2_linear_3_12912" x1="525.119" y1="827.279" x2="1151.62" y2="827.254" gradientUnits="userSpaceOnUse">
<stop stop-color="#00F0FF"/>
<stop offset="0.489583" stop-color="#4C02E1"/>
<stop offset="0.8125" stop-color="#FF1CF7"/>
</linearGradient>
<linearGradient id="paint3_linear_3_12912" x1="525.136" y1="814.385" x2="1151.65" y2="814.372" gradientUnits="userSpaceOnUse">
<stop stop-color="#00F0FF"/>
<stop offset="0.489583" stop-color="#4C02E1"/>
<stop offset="0.8125" stop-color="#FF1CF7"/>
</linearGradient>
<linearGradient id="paint4_linear_3_12912" x1="525.136" y1="801.966" x2="1151.65" y2="801.958" gradientUnits="userSpaceOnUse">
<stop stop-color="#00F0FF"/>
<stop offset="0.489583" stop-color="#4C02E1"/>
<stop offset="0.8125" stop-color="#FF1CF7"/>
</linearGradient>
<linearGradient id="paint5_linear_3_12912" x1="525.136" y1="787.912" x2="1151.65" y2="787.908" gradientUnits="userSpaceOnUse">
<stop stop-color="#00F0FF"/>
<stop offset="0.489583" stop-color="#4C02E1"/>
<stop offset="0.8125" stop-color="#FF1CF7"/>
</linearGradient>
<linearGradient id="paint6_linear_3_12912" x1="525.136" y1="774.266" x2="1151.65" y2="774.262" gradientUnits="userSpaceOnUse">
<stop stop-color="#00F0FF"/>
<stop offset="0.489583" stop-color="#4C02E1"/>
<stop offset="0.8125" stop-color="#FF1CF7"/>
</linearGradient>
<linearGradient id="paint7_linear_3_12912" x1="525.136" y1="759.627" x2="1151.65" y2="759.624" gradientUnits="userSpaceOnUse">
<stop stop-color="#00F0FF"/>
<stop offset="0.489583" stop-color="#4C02E1"/>
<stop offset="0.8125" stop-color="#FF1CF7"/>
</linearGradient>
<linearGradient id="paint8_linear_3_12912" x1="525.127" y1="745.021" x2="1151.63" y2="745.019" gradientUnits="userSpaceOnUse">
<stop stop-color="#00F0FF"/>
<stop offset="0.489583" stop-color="#4C02E1"/>
<stop offset="0.8125" stop-color="#FF1CF7"/>
</linearGradient>
<linearGradient id="paint9_linear_3_12912" x1="525.14" y1="730.652" x2="1151.66" y2="730.65" gradientUnits="userSpaceOnUse">
<stop stop-color="#00F0FF"/>
<stop offset="0.489583" stop-color="#4C02E1"/>
<stop offset="0.8125" stop-color="#FF1CF7"/>
</linearGradient>
<linearGradient id="paint10_linear_3_12912" x1="525.173" y1="716.716" x2="1151.67" y2="716.715" gradientUnits="userSpaceOnUse">
<stop stop-color="#00F0FF"/>
<stop offset="0.489583" stop-color="#4C02E1"/>
<stop offset="0.8125" stop-color="#FF1CF7"/>
</linearGradient>
<linearGradient id="paint11_linear_3_12912" x1="525.196" y1="702.447" x2="1151.71" y2="702.446" gradientUnits="userSpaceOnUse">
<stop stop-color="#00F0FF"/>
<stop offset="0.489583" stop-color="#4C02E1"/>
<stop offset="0.8125" stop-color="#FF1CF7"/>
</linearGradient>
<linearGradient id="paint12_linear_3_12912" x1="525.206" y1="689.955" x2="1151.72" y2="689.954" gradientUnits="userSpaceOnUse">
<stop stop-color="#00F0FF"/>
<stop offset="0.489583" stop-color="#4C02E1"/>
<stop offset="0.8125" stop-color="#FF1CF7"/>
</linearGradient>
<linearGradient id="paint13_linear_3_12912" x1="525.216" y1="678.569" x2="1151.73" y2="678.568" gradientUnits="userSpaceOnUse">
<stop stop-color="#00F0FF"/>
<stop offset="0.489583" stop-color="#4C02E1"/>
<stop offset="0.8125" stop-color="#FF1CF7"/>
</linearGradient>
<linearGradient id="paint14_linear_3_12912" x1="525.252" y1="668.531" x2="1151.78" y2="668.53" gradientUnits="userSpaceOnUse">
<stop stop-color="#00F0FF"/>
<stop offset="0.489583" stop-color="#4C02E1"/>
<stop offset="0.8125" stop-color="#FF1CF7"/>
</linearGradient>
<linearGradient id="paint15_linear_3_12912" x1="525.246" y1="658.851" x2="1151.76" y2="658.85" gradientUnits="userSpaceOnUse">
<stop stop-color="#00F0FF"/>
<stop offset="0.489583" stop-color="#4C02E1"/>
<stop offset="0.8125" stop-color="#FF1CF7"/>
</linearGradient>
<linearGradient id="paint16_linear_3_12912" x1="525.244" y1="649.143" x2="1151.74" y2="649.142" gradientUnits="userSpaceOnUse">
<stop stop-color="#00F0FF"/>
<stop offset="0.489583" stop-color="#4C02E1"/>
<stop offset="0.8125" stop-color="#FF1CF7"/>
</linearGradient>
<linearGradient id="paint17_linear_3_12912" x1="525.268" y1="640.368" x2="1151.77" y2="640.368" gradientUnits="userSpaceOnUse">
<stop stop-color="#00F0FF"/>
<stop offset="0.489583" stop-color="#4C02E1"/>
<stop offset="0.8125" stop-color="#FF1CF7"/>
</linearGradient>
<linearGradient id="paint18_linear_3_12912" x1="525.308" y1="632.385" x2="1151.83" y2="632.384" gradientUnits="userSpaceOnUse">
<stop stop-color="#00F0FF"/>
<stop offset="0.489583" stop-color="#4C02E1"/>
<stop offset="0.8125" stop-color="#FF1CF7"/>
</linearGradient>
<linearGradient id="paint19_linear_3_12912" x1="525.306" y1="625.165" x2="1151.82" y2="625.165" gradientUnits="userSpaceOnUse">
<stop stop-color="#00F0FF"/>
<stop offset="0.489583" stop-color="#4C02E1"/>
<stop offset="0.8125" stop-color="#FF1CF7"/>
</linearGradient>
<linearGradient id="paint20_linear_3_12912" x1="525.326" y1="618.636" x2="1151.84" y2="618.635" gradientUnits="userSpaceOnUse">
<stop stop-color="#00F0FF"/>
<stop offset="0.489583" stop-color="#4C02E1"/>
<stop offset="0.8125" stop-color="#FF1CF7"/>
</linearGradient>
<linearGradient id="paint21_linear_3_12912" x1="525.35" y1="613.345" x2="1151.87" y2="613.344" gradientUnits="userSpaceOnUse">
<stop stop-color="#00F0FF"/>
<stop offset="0.489583" stop-color="#4C02E1"/>
<stop offset="0.8125" stop-color="#FF1CF7"/>
</linearGradient>
<linearGradient id="paint22_linear_3_12912" x1="525.374" y1="607.662" x2="1151.9" y2="607.661" gradientUnits="userSpaceOnUse">
<stop stop-color="#00F0FF"/>
<stop offset="0.489583" stop-color="#4C02E1"/>
<stop offset="0.8125" stop-color="#FF1CF7"/>
</linearGradient>
<linearGradient id="paint23_linear_3_12912" x1="525.369" y1="602.377" x2="1151.87" y2="602.376" gradientUnits="userSpaceOnUse">
<stop stop-color="#00F0FF"/>
<stop offset="0.489583" stop-color="#4C02E1"/>
<stop offset="0.8125" stop-color="#FF1CF7"/>
</linearGradient>
<linearGradient id="paint24_linear_3_12912" x1="525.406" y1="597.406" x2="1151.92" y2="597.405" gradientUnits="userSpaceOnUse">
<stop stop-color="#00F0FF"/>
<stop offset="0.489583" stop-color="#4C02E1"/>
<stop offset="0.8125" stop-color="#FF1CF7"/>
</linearGradient>
<linearGradient id="paint25_linear_3_12912" x1="525.442" y1="592.655" x2="1151.97" y2="592.654" gradientUnits="userSpaceOnUse">
<stop stop-color="#00F0FF"/>
<stop offset="0.489583" stop-color="#4C02E1"/>
<stop offset="0.8125" stop-color="#FF1CF7"/>
</linearGradient>
<linearGradient id="paint26_linear_3_12912" x1="525.437" y1="588.041" x2="1151.94" y2="588.04" gradientUnits="userSpaceOnUse">
<stop stop-color="#00F0FF"/>
<stop offset="0.489583" stop-color="#4C02E1"/>
<stop offset="0.8125" stop-color="#FF1CF7"/>
</linearGradient>
<linearGradient id="paint27_linear_3_12912" x1="525.466" y1="584.024" x2="1151.98" y2="584.023" gradientUnits="userSpaceOnUse">
<stop stop-color="#00F0FF"/>
<stop offset="0.489583" stop-color="#4C02E1"/>
<stop offset="0.8125" stop-color="#FF1CF7"/>
</linearGradient>
<linearGradient id="paint28_linear_3_12912" x1="525.47" y1="579.551" x2="1151.97" y2="579.55" gradientUnits="userSpaceOnUse">
<stop stop-color="#00F0FF"/>
<stop offset="0.489583" stop-color="#4C02E1"/>
<stop offset="0.8125" stop-color="#FF1CF7"/>
</linearGradient>
<linearGradient id="paint29_linear_3_12912" x1="525.494" y1="574.987" x2="1151.99" y2="574.986" gradientUnits="userSpaceOnUse">
<stop stop-color="#00F0FF"/>
<stop offset="0.489583" stop-color="#4C02E1"/>
<stop offset="0.8125" stop-color="#FF1CF7"/>
</linearGradient>
<linearGradient id="paint30_linear_3_12912" x1="525.51" y1="570.273" x2="1152.01" y2="570.272" gradientUnits="userSpaceOnUse">
<stop stop-color="#00F0FF"/>
<stop offset="0.489583" stop-color="#4C02E1"/>
<stop offset="0.8125" stop-color="#FF1CF7"/>
</linearGradient>
<linearGradient id="paint31_linear_3_12912" x1="525.562" y1="565.347" x2="1152.09" y2="565.346" gradientUnits="userSpaceOnUse">
<stop stop-color="#00F0FF"/>
<stop offset="0.489583" stop-color="#4C02E1"/>
<stop offset="0.8125" stop-color="#FF1CF7"/>
</linearGradient>
<linearGradient id="paint32_linear_3_12912" x1="525.566" y1="560.062" x2="1152.08" y2="560.061" gradientUnits="userSpaceOnUse">
<stop stop-color="#00F0FF"/>
<stop offset="0.489583" stop-color="#4C02E1"/>
<stop offset="0.8125" stop-color="#FF1CF7"/>
</linearGradient>
<linearGradient id="paint33_linear_3_12912" x1="525.596" y1="554.549" x2="1152.11" y2="554.548" gradientUnits="userSpaceOnUse">
<stop stop-color="#00F0FF"/>
<stop offset="0.489583" stop-color="#4C02E1"/>
<stop offset="0.8125" stop-color="#FF1CF7"/>
</linearGradient>
<linearGradient id="paint34_linear_3_12912" x1="525.628" y1="549.288" x2="1152.16" y2="549.287" gradientUnits="userSpaceOnUse">
<stop stop-color="#00F0FF"/>
<stop offset="0.489583" stop-color="#4C02E1"/>
<stop offset="0.8125" stop-color="#FF1CF7"/>
</linearGradient>
<linearGradient id="paint35_linear_3_12912" x1="525.636" y1="544.275" x2="1152.15" y2="544.274" gradientUnits="userSpaceOnUse">
<stop stop-color="#00F0FF"/>
<stop offset="0.489583" stop-color="#4C02E1"/>
<stop offset="0.8125" stop-color="#FF1CF7"/>
</linearGradient>
<linearGradient id="paint36_linear_3_12912" x1="525.668" y1="539.523" x2="1152.19" y2="539.522" gradientUnits="userSpaceOnUse">
<stop stop-color="#00F0FF"/>
<stop offset="0.489583" stop-color="#4C02E1"/>
<stop offset="0.8125" stop-color="#FF1CF7"/>
</linearGradient>
<linearGradient id="paint37_linear_3_12912" x1="525.676" y1="535.034" x2="1152.19" y2="535.033" gradientUnits="userSpaceOnUse">
<stop stop-color="#00F0FF"/>
<stop offset="0.489583" stop-color="#4C02E1"/>
<stop offset="0.8125" stop-color="#FF1CF7"/>
</linearGradient>
<linearGradient id="paint38_linear_3_12912" x1="525.718" y1="530.757" x2="1152.24" y2="530.756" gradientUnits="userSpaceOnUse">
<stop stop-color="#00F0FF"/>
<stop offset="0.489583" stop-color="#4C02E1"/>
<stop offset="0.8125" stop-color="#FF1CF7"/>
</linearGradient>
<linearGradient id="paint39_linear_3_12912" x1="525.721" y1="526.748" x2="1152.23" y2="526.747" gradientUnits="userSpaceOnUse">
<stop stop-color="#00F0FF"/>
<stop offset="0.489583" stop-color="#4C02E1"/>
<stop offset="0.8125" stop-color="#FF1CF7"/>
</linearGradient>
<linearGradient id="paint40_linear_3_12912" x1="525.746" y1="522.951" x2="1152.26" y2="522.95" gradientUnits="userSpaceOnUse">
<stop stop-color="#00F0FF"/>
<stop offset="0.489583" stop-color="#4C02E1"/>
<stop offset="0.8125" stop-color="#FF1CF7"/>
</linearGradient>
<linearGradient id="paint41_linear_3_12912" x1="525.757" y1="519.374" x2="1152.26" y2="519.372" gradientUnits="userSpaceOnUse">
<stop stop-color="#00F0FF"/>
<stop offset="0.489583" stop-color="#4C02E1"/>
<stop offset="0.8125" stop-color="#FF1CF7"/>
</linearGradient>
<linearGradient id="paint42_linear_3_12912" x1="525.786" y1="516.03" x2="1152.3" y2="516.029" gradientUnits="userSpaceOnUse">
<stop stop-color="#00F0FF"/>
<stop offset="0.489583" stop-color="#4C02E1"/>
<stop offset="0.8125" stop-color="#FF1CF7"/>
</linearGradient>
<linearGradient id="paint43_linear_3_12912" x1="525.806" y1="512.883" x2="1152.32" y2="512.882" gradientUnits="userSpaceOnUse">
<stop stop-color="#00F0FF"/>
<stop offset="0.489583" stop-color="#4C02E1"/>
<stop offset="0.8125" stop-color="#FF1CF7"/>
</linearGradient>
<linearGradient id="paint44_linear_3_12912" x1="525.826" y1="509.961" x2="1152.34" y2="509.96" gradientUnits="userSpaceOnUse">
<stop stop-color="#00F0FF"/>
<stop offset="0.489583" stop-color="#4C02E1"/>
<stop offset="0.8125" stop-color="#FF1CF7"/>
</linearGradient>
<linearGradient id="paint45_linear_3_12912" x1="525.845" y1="507.234" x2="1152.36" y2="507.232" gradientUnits="userSpaceOnUse">
<stop stop-color="#00F0FF"/>
<stop offset="0.489583" stop-color="#4C02E1"/>
<stop offset="0.8125" stop-color="#FF1CF7"/>
</linearGradient>
<linearGradient id="paint46_linear_3_12912" x1="525.866" y1="504.712" x2="1152.38" y2="504.711" gradientUnits="userSpaceOnUse">
<stop stop-color="#00F0FF"/>
<stop offset="0.489583" stop-color="#4C02E1"/>
<stop offset="0.8125" stop-color="#FF1CF7"/>
</linearGradient>
<linearGradient id="paint47_linear_3_12912" x1="525.857" y1="502.404" x2="1152.34" y2="502.403" gradientUnits="userSpaceOnUse">
<stop stop-color="#00F0FF"/>
<stop offset="0.489583" stop-color="#4C02E1"/>
<stop offset="0.8125" stop-color="#FF1CF7"/>
</linearGradient>
<linearGradient id="paint48_linear_3_12912" x1="525.926" y1="500.271" x2="1152.46" y2="500.27" gradientUnits="userSpaceOnUse">
<stop stop-color="#00F0FF"/>
<stop offset="0.489583" stop-color="#4C02E1"/>
<stop offset="0.8125" stop-color="#FF1CF7"/>
</linearGradient>
<linearGradient id="paint49_linear_3_12912" x1="525.926" y1="498.415" x2="1152.44" y2="498.414" gradientUnits="userSpaceOnUse">
<stop stop-color="#00F0FF"/>
<stop offset="0.489583" stop-color="#4C02E1"/>
<stop offset="0.8125" stop-color="#FF1CF7"/>
</linearGradient>
<linearGradient id="paint50_linear_3_12912" x1="525.946" y1="496.697" x2="1152.46" y2="496.695" gradientUnits="userSpaceOnUse">
<stop stop-color="#00F0FF"/>
<stop offset="0.489583" stop-color="#4C02E1"/>
<stop offset="0.8125" stop-color="#FF1CF7"/>
</linearGradient>
<linearGradient id="paint51_linear_3_12912" x1="525.978" y1="495.252" x2="1152.5" y2="495.25" gradientUnits="userSpaceOnUse">
<stop stop-color="#00F0FF"/>
<stop offset="0.489583" stop-color="#4C02E1"/>
<stop offset="0.8125" stop-color="#FF1CF7"/>
</linearGradient>
<linearGradient id="paint52_linear_3_12912" x1="525.975" y1="493.963" x2="1152.49" y2="493.961" gradientUnits="userSpaceOnUse">
<stop stop-color="#00F0FF"/>
<stop offset="0.489583" stop-color="#4C02E1"/>
<stop offset="0.8125" stop-color="#FF1CF7"/>
</linearGradient>
<linearGradient id="paint53_linear_3_12912" x1="525.975" y1="492.805" x2="1152.47" y2="492.803" gradientUnits="userSpaceOnUse">
<stop stop-color="#00F0FF"/>
<stop offset="0.489583" stop-color="#4C02E1"/>
<stop offset="0.8125" stop-color="#FF1CF7"/>
</linearGradient>
<linearGradient id="paint54_linear_3_12912" x1="526.003" y1="491.839" x2="1152.5" y2="491.837" gradientUnits="userSpaceOnUse">
<stop stop-color="#00F0FF"/>
<stop offset="0.489583" stop-color="#4C02E1"/>
<stop offset="0.8125" stop-color="#FF1CF7"/>
</linearGradient>
<linearGradient id="paint55_linear_3_12912" x1="526.009" y1="490.99" x2="1152.5" y2="490.988" gradientUnits="userSpaceOnUse">
<stop stop-color="#00F0FF"/>
<stop offset="0.489583" stop-color="#4C02E1"/>
<stop offset="0.8125" stop-color="#FF1CF7"/>
</linearGradient>
<linearGradient id="paint56_linear_3_12912" x1="526.027" y1="489.515" x2="1152.53" y2="489.513" gradientUnits="userSpaceOnUse">
<stop stop-color="#00F0FF"/>
<stop offset="0.489583" stop-color="#4C02E1"/>
<stop offset="0.8125" stop-color="#FF1CF7"/>
</linearGradient>
<linearGradient id="paint57_linear_3_12912" x1="526.072" y1="487.139" x2="1152.6" y2="487.137" gradientUnits="userSpaceOnUse">
<stop stop-color="#00F0FF"/>
<stop offset="0.489583" stop-color="#4C02E1"/>
<stop offset="0.8125" stop-color="#FF1CF7"/>
</linearGradient>
<linearGradient id="paint58_linear_3_12912" x1="526.07" y1="484.947" x2="1152.59" y2="484.945" gradientUnits="userSpaceOnUse">
<stop stop-color="#00F0FF"/>
<stop offset="0.489583" stop-color="#4C02E1"/>
<stop offset="0.8125" stop-color="#FF1CF7"/>
</linearGradient>
<linearGradient id="paint59_linear_3_12912" x1="526.076" y1="482.949" x2="1152.59" y2="482.947" gradientUnits="userSpaceOnUse">
<stop stop-color="#00F0FF"/>
<stop offset="0.489583" stop-color="#4C02E1"/>
<stop offset="0.8125" stop-color="#FF1CF7"/>
</linearGradient>
<linearGradient id="paint60_linear_3_12912" x1="526.115" y1="481.104" x2="1152.61" y2="481.102" gradientUnits="userSpaceOnUse">
<stop stop-color="#00F0FF"/>
<stop offset="0.489583" stop-color="#4C02E1"/>
<stop offset="0.8125" stop-color="#FF1CF7"/>
</linearGradient>
<linearGradient id="paint61_linear_3_12912" x1="526.119" y1="479.502" x2="1152.61" y2="479.5" gradientUnits="userSpaceOnUse">
<stop stop-color="#00F0FF"/>
<stop offset="0.489583" stop-color="#4C02E1"/>
<stop offset="0.8125" stop-color="#FF1CF7"/>
</linearGradient>
<linearGradient id="paint62_linear_3_12912" x1="526.131" y1="478.059" x2="1152.64" y2="478.057" gradientUnits="userSpaceOnUse">
<stop stop-color="#00F0FF"/>
<stop offset="0.489583" stop-color="#4C02E1"/>
<stop offset="0.8125" stop-color="#FF1CF7"/>
</linearGradient>
<linearGradient id="paint63_linear_3_12912" x1="526.131" y1="476.801" x2="1152.64" y2="476.799" gradientUnits="userSpaceOnUse">
<stop stop-color="#00F0FF"/>
<stop offset="0.489583" stop-color="#4C02E1"/>
<stop offset="0.8125" stop-color="#FF1CF7"/>
</linearGradient>
<linearGradient id="paint64_linear_3_12912" x1="526.136" y1="475.737" x2="1152.65" y2="475.735" gradientUnits="userSpaceOnUse">
<stop stop-color="#00F0FF"/>
<stop offset="0.489583" stop-color="#4C02E1"/>
<stop offset="0.8125" stop-color="#FF1CF7"/>
</linearGradient>
<linearGradient id="paint65_linear_3_12912" x1="526.131" y1="474.865" x2="1152.64" y2="474.863" gradientUnits="userSpaceOnUse">
<stop stop-color="#00F0FF"/>
<stop offset="0.489583" stop-color="#4C02E1"/>
<stop offset="0.8125" stop-color="#FF1CF7"/>
</linearGradient>
<linearGradient id="paint66_linear_3_12912" x1="526.136" y1="474.174" x2="1152.65" y2="474.172" gradientUnits="userSpaceOnUse">
<stop stop-color="#00F0FF"/>
<stop offset="0.489583" stop-color="#4C02E1"/>
<stop offset="0.8125" stop-color="#FF1CF7"/>
</linearGradient>
<linearGradient id="paint67_linear_3_12912" x1="526.136" y1="473.694" x2="1152.65" y2="473.693" gradientUnits="userSpaceOnUse">
<stop stop-color="#00F0FF"/>
<stop offset="0.489583" stop-color="#4C02E1"/>
<stop offset="0.8125" stop-color="#FF1CF7"/>
</linearGradient>
<linearGradient id="paint68_linear_3_12912" x1="526.119" y1="473.388" x2="1152.61" y2="473.386" gradientUnits="userSpaceOnUse">
<stop stop-color="#00F0FF"/>
<stop offset="0.489583" stop-color="#4C02E1"/>
<stop offset="0.8125" stop-color="#FF1CF7"/>
</linearGradient>
<linearGradient id="paint69_linear_3_12912" x1="526.152" y1="473.207" x2="1152.68" y2="473.205" gradientUnits="userSpaceOnUse">
<stop stop-color="#00F0FF"/>
<stop offset="0.489583" stop-color="#4C02E1"/>
<stop offset="0.8125" stop-color="#FF1CF7"/>
</linearGradient>
</defs>
</svg>
