<svg width="24" height="24" viewBox="0 0 24 24" fill="none" xmlns="http://www.w3.org/2000/svg">
<path d="M10.2538 8.60873C10.2538 7.36008 11.266 6.34785 12.5146 6.34785C13.7633 6.34785 14.7755 7.36008 14.7755 8.60873C14.7755 9.85737 13.7633 10.8696 12.5146 10.8696C11.266 10.8696 10.2538 9.85737 10.2538 8.60873Z" fill="#00D1FF"/>
<path d="M11.3842 12.5653C9.51123 12.5653 7.99289 14.0836 7.99289 15.9566C7.99289 16.5809 8.49901 17.087 9.12333 17.087H15.906C16.5303 17.087 17.0364 16.5809 17.0364 15.9566C17.0364 14.0836 15.518 12.5653 13.6451 12.5653H11.3842Z" fill="#00D1FF"/>
<path fill-rule="evenodd" clip-rule="evenodd" d="M7.47688 1.69348C10.8182 1.21334 14.2111 1.21334 17.5524 1.69348C19.2091 1.93154 20.4854 3.27607 20.6371 4.94285L20.7806 6.52064C21.1122 10.166 21.1122 13.834 20.7806 17.4794L20.6371 19.0572C20.4854 20.724 19.2091 22.0685 17.5524 22.3066C14.2111 22.7867 10.8182 22.7867 7.47688 22.3066C5.82023 22.0685 4.54386 20.724 4.39224 19.0572L4.24871 17.4794C3.9171 13.834 3.9171 10.166 4.24871 6.52064L4.39224 4.94285C4.54386 3.27607 5.82023 1.93154 7.47688 1.69348ZM17.3112 3.3719C14.1299 2.91474 10.8994 2.91474 7.71806 3.3719C6.83882 3.49824 6.1614 4.21184 6.08092 5.09647L5.9374 6.67426C5.61508 10.2175 5.61508 13.7826 5.9374 17.3258L6.08092 18.9036C6.1614 19.7882 6.83882 20.5018 7.71806 20.6282C10.8994 21.0853 14.1299 21.0853 17.3112 20.6282C18.1905 20.5018 18.8679 19.7882 18.9484 18.9036L19.0919 17.3258C19.4142 13.7826 19.4142 10.2175 19.0919 6.67425L18.9484 5.09646C18.8679 4.21184 18.1905 3.49824 17.3112 3.3719Z" fill="#00D1FF"/>
</svg>
