<svg width="787" height="704" viewBox="0 0 787 704" fill="none" xmlns="http://www.w3.org/2000/svg">
<path opacity="0.0344828" d="M265.366 404.823C274.601 379.551 262.116 351.51 237.156 341.462C191 322.881 198.088 255.446 247.099 246.868C273.602 242.229 291.644 217.397 287.866 190.757C280.879 141.494 342.824 113.914 374.758 152.07C392.027 172.703 422.553 175.911 443.735 159.32C482.905 128.637 537.761 168.493 520.685 215.227C511.451 240.499 523.935 268.54 548.895 278.588C595.051 297.169 587.964 364.604 538.953 373.182C512.449 377.821 494.408 402.653 498.186 429.293C505.173 478.556 443.228 506.136 411.293 467.98C394.024 447.347 363.498 444.139 342.317 460.73C303.147 491.412 248.29 451.557 265.366 404.823Z" stroke="url(#paint0_linear_471_42014)" stroke-width="0.4"/>
<path opacity="0.0689655" d="M262.211 396.932C272.626 372.481 261.761 344.177 237.66 332.975C193.096 312.263 203.572 246.118 252.355 240.19C278.738 236.984 297.818 213.423 295.468 186.95C291.124 138 353.646 114.001 383.17 153.284C399.138 174.529 429.083 179.272 450.834 164.001C491.054 135.764 543.099 177.909 523.841 223.12C513.426 247.572 524.291 275.876 548.392 287.078C592.955 307.79 582.479 373.935 533.696 379.863C507.313 383.068 488.233 406.63 490.583 433.103C494.927 482.052 432.406 506.052 402.881 466.768C386.913 445.523 356.968 440.78 335.217 456.052C294.998 484.289 242.953 442.143 262.211 396.932Z" stroke="url(#paint1_linear_471_42014)" stroke-width="0.4"/>
<path opacity="0.103448" d="M259.526 388.972C271.062 365.396 261.809 336.919 238.619 324.626C195.743 301.897 209.493 237.21 257.906 233.885C284.092 232.087 304.127 209.836 303.178 183.606C301.424 135.11 364.32 114.674 391.405 154.939C406.055 176.718 435.343 182.943 457.585 169.006C498.706 143.239 547.852 187.49 526.524 231.079C514.989 254.656 524.241 283.133 547.432 295.426C590.308 318.155 576.558 382.842 528.144 386.166C501.959 387.964 481.923 410.216 482.872 436.446C484.627 484.942 421.731 505.378 394.645 465.113C379.995 443.334 350.707 437.109 328.466 451.046C287.344 476.813 238.198 432.562 259.526 388.972Z" stroke="url(#paint2_linear_471_42014)" stroke-width="0.4"/>
<path opacity="0.137931" d="M257.313 380.974C269.906 358.322 262.254 329.763 240.021 316.442C198.921 291.817 215.82 228.746 263.727 227.97C289.642 227.55 310.549 206.644 310.968 180.729C311.744 132.822 374.815 115.922 399.441 157.023C412.761 179.256 441.32 186.908 463.973 174.314C505.85 151.033 552.02 197.204 528.739 239.081C516.145 261.733 523.798 290.292 546.03 303.613C587.131 328.238 570.231 391.309 522.324 392.085C496.41 392.505 475.503 413.411 475.083 439.326C474.307 487.233 411.237 504.133 386.611 463.032C373.29 440.799 344.731 433.147 322.079 445.741C280.202 469.022 234.031 422.851 257.313 380.974Z" stroke="url(#paint3_linear_471_42014)" stroke-width="0.4"/>
<path opacity="0.172414" d="M255.565 372.959C269.152 351.276 263.083 322.723 241.851 308.441C202.606 282.041 222.524 220.737 269.792 222.447C295.364 223.372 317.057 203.84 318.81 178.312C322.05 131.124 385.1 117.722 407.253 159.513C419.238 182.121 446.999 191.141 469.984 179.895C512.47 159.107 555.601 207.009 530.486 247.09C516.899 268.773 522.968 297.325 544.2 311.608C583.446 338.008 563.527 399.311 516.259 397.601C490.687 396.676 468.994 416.208 467.242 441.737C464.001 488.925 400.952 502.326 378.798 460.536C366.814 437.927 339.052 428.907 316.067 440.153C273.581 460.941 230.45 413.039 255.565 372.959Z" stroke="url(#paint4_linear_471_42014)" stroke-width="0.4"/>
<path opacity="0.206897" d="M254.279 364.962C268.793 344.289 264.286 315.829 244.094 300.653C206.774 272.604 229.574 213.209 276.076 217.336C301.236 219.569 323.63 201.435 326.676 176.361C332.308 130.017 395.146 120.064 414.822 162.4C425.469 185.306 452.369 195.632 475.608 185.733C518.559 167.438 558.597 216.881 531.772 255.089C517.258 275.762 521.765 304.222 541.957 319.398C579.276 347.447 556.477 406.842 509.974 402.715C484.814 400.482 462.421 418.616 459.374 443.69C453.743 490.034 390.905 499.987 371.228 457.651C360.582 434.745 333.681 424.419 310.443 434.318C267.492 452.613 227.454 403.17 254.279 364.962Z" stroke="url(#paint5_linear_471_42014)" stroke-width="0.4"/>
<path opacity="0.241379" d="M253.45 357.005C268.822 337.379 265.85 309.096 246.732 293.096C211.403 263.527 236.94 206.17 282.554 212.639C307.237 216.14 330.244 199.424 334.542 174.868C342.485 129.487 404.926 122.924 422.13 165.662C431.44 188.788 457.42 200.355 480.835 191.799C524.108 175.988 561.011 226.781 532.602 263.05C517.229 282.675 520.202 310.958 539.319 326.958C574.648 356.528 549.112 413.884 503.497 407.415C478.815 403.915 455.808 420.63 451.509 445.187C443.566 490.567 381.126 497.13 363.921 454.392C354.612 431.267 328.632 419.699 305.216 428.255C261.944 444.067 225.04 393.273 253.45 357.005Z" stroke="url(#paint6_linear_471_42014)" stroke-width="0.4"/>
<path opacity="0.275862" d="M253.067 349.11C269.229 330.565 267.761 302.54 249.748 285.786C216.465 254.826 244.588 199.631 289.199 208.36C313.341 213.085 336.876 197.8 342.38 173.824C352.55 129.52 414.412 126.278 429.157 169.276C437.137 192.546 462.141 205.286 485.657 198.064C529.111 184.72 562.85 236.673 532.984 270.942C516.822 289.487 518.291 317.512 536.303 334.266C569.587 365.226 541.463 420.421 496.853 411.692C472.711 406.968 449.175 422.252 443.672 446.228C433.502 490.532 371.64 493.774 356.894 450.776C348.915 427.506 323.91 414.766 300.394 421.988C256.941 435.332 223.202 383.379 253.067 349.11Z" stroke="url(#paint7_linear_471_42014)" stroke-width="0.4"/>
<path opacity="0.310345" d="M253.123 341.306C270.005 323.869 270.005 296.182 253.123 278.744C221.932 246.526 252.488 193.603 295.984 204.506C319.526 210.407 343.504 196.564 350.164 173.225C362.47 130.105 423.581 130.105 435.887 173.225C442.547 196.564 466.525 210.407 490.067 204.506C533.564 193.603 564.119 246.526 532.928 278.744C516.047 296.182 516.047 323.869 532.928 341.306C564.119 373.524 533.564 426.447 490.067 415.544C466.525 409.643 442.547 423.486 435.887 446.825C423.581 489.945 362.47 489.945 350.164 446.825C343.504 423.486 319.526 409.643 295.984 415.544C252.488 426.447 221.932 373.524 253.123 341.306Z" stroke="url(#paint8_linear_471_42014)" stroke-width="0.4"/>
<path opacity="0.344828" d="M253.607 333.617C271.137 317.312 272.566 290.038 256.836 271.989C227.778 238.646 260.606 188.097 302.885 201.081C325.771 208.109 350.105 195.711 357.871 173.064C372.218 131.228 432.408 134.382 442.303 177.489C447.66 200.823 470.565 215.698 494.06 211.1C537.465 202.607 564.828 256.31 532.444 286.433C514.914 302.739 513.485 330.012 529.214 348.061C558.272 381.404 525.445 431.953 483.166 418.969C460.28 411.941 435.946 424.34 428.18 446.986C413.833 488.823 353.642 485.668 343.747 442.561C338.391 419.227 315.486 404.353 291.991 408.95C248.586 417.444 221.223 363.74 253.607 333.617Z" stroke="url(#paint9_linear_471_42014)" stroke-width="0.4"/>
<path opacity="0.37931" d="M254.507 326.066C272.613 310.912 275.429 284.124 260.869 265.536C233.974 231.202 268.91 183.117 309.875 198.085C332.052 206.189 356.659 195.233 365.476 173.33C381.764 132.871 440.874 139.084 448.394 182.045C452.464 205.303 474.255 221.135 497.633 217.819C540.815 211.695 564.99 265.993 531.544 293.985C513.438 309.14 510.622 335.927 525.182 354.515C552.077 388.85 517.141 436.934 476.176 421.966C453.999 413.863 429.392 424.818 420.575 446.722C404.288 487.18 345.177 480.967 337.658 438.007C333.587 414.749 311.796 398.917 288.418 402.232C245.237 408.356 221.062 354.059 254.507 326.066Z" stroke="url(#paint10_linear_471_42014)" stroke-width="0.4"/>
<path opacity="0.413793" d="M255.81 318.677C274.421 304.689 278.576 278.456 265.198 259.402C240.491 224.21 277.368 178.67 316.928 195.52C338.348 204.644 363.143 195.126 372.956 174.013C391.08 135.02 448.957 144.187 454.144 186.872C456.952 209.984 477.593 226.699 500.784 224.64C543.615 220.839 564.615 275.546 530.241 301.38C511.63 315.368 507.475 341.601 520.853 360.656C545.561 395.848 508.683 441.388 469.123 424.537C447.703 415.413 422.908 424.931 413.095 446.044C394.972 485.037 337.094 475.871 331.907 433.185C329.099 410.073 308.459 393.359 285.268 395.417C242.437 399.218 221.437 344.511 255.81 318.677Z" stroke="url(#paint11_linear_471_42014)" stroke-width="0.4"/>
<path opacity="0.448276" d="M257.502 311.463C276.546 298.653 281.99 273.041 269.803 253.592C247.297 217.675 285.947 174.75 324.019 193.378C344.636 203.466 369.538 195.374 380.289 175.095C400.14 137.646 456.64 149.655 459.543 191.941C461.116 214.84 480.574 232.36 503.511 231.53C545.869 229.998 563.718 284.933 528.55 308.59C509.505 321.401 504.061 347.012 516.249 366.462C538.755 402.378 500.104 445.304 462.032 426.676C441.415 416.588 416.513 424.679 405.763 444.958C385.911 482.407 329.412 470.398 326.508 428.112C324.936 405.214 305.478 387.694 282.54 388.523C240.182 390.056 222.333 335.121 257.502 311.463Z" stroke="url(#paint12_linear_471_42014)" stroke-width="0.4"/>
<path opacity="0.482759" d="M259.567 304.453C278.973 292.826 285.652 267.898 274.66 248.125C254.363 211.617 294.615 171.365 331.123 191.662C350.896 202.654 375.824 195.975 387.452 176.568C408.92 140.737 463.906 155.47 464.582 197.235C464.949 219.856 483.197 238.104 505.817 238.471C547.583 239.147 562.316 294.133 526.484 315.601C507.078 327.229 500.399 352.157 511.391 371.93C531.688 408.438 491.436 448.69 454.928 428.393C435.155 417.4 410.227 424.08 398.599 443.486C377.131 479.318 322.145 464.585 321.469 422.819C321.102 400.199 302.854 381.95 280.234 381.584C238.468 380.907 223.735 325.922 259.567 304.453Z" stroke="url(#paint13_linear_471_42014)" stroke-width="0.4"/>
<path opacity="0.517241" d="M261.989 297.661C281.686 287.219 289.545 263.032 279.747 243.007C261.658 206.038 303.34 168.508 338.215 190.362C357.106 202.199 381.982 196.912 394.426 178.414C417.397 144.264 470.74 161.597 469.252 202.726C468.446 225.005 485.463 243.905 507.704 245.432C548.765 248.252 560.426 303.114 524.062 322.39C504.365 332.831 496.506 357.019 506.304 377.044C524.393 414.012 482.711 451.542 447.836 429.689C428.945 417.851 404.069 423.139 391.625 441.637C368.654 475.786 315.311 458.454 316.799 417.324C317.605 395.045 300.588 376.146 278.347 374.618C237.287 371.799 225.625 316.937 261.989 297.661Z" stroke="url(#paint14_linear_471_42014)" stroke-width="0.4"/>
<path opacity="0.551724" d="M264.75 291.109C284.668 281.851 293.648 258.46 285.04 238.252C269.152 200.953 312.09 166.182 345.271 189.478C363.247 202.099 387.995 198.179 401.191 180.621C425.55 148.212 477.131 168.012 473.546 208.396C471.605 230.274 487.373 249.746 509.176 252.395C549.423 257.286 558.066 311.856 521.301 328.944C501.383 338.202 492.403 361.593 501.011 381.801C516.899 419.1 473.961 453.871 440.78 430.575C422.804 417.954 398.056 421.874 384.86 439.432C360.502 471.841 308.921 452.041 312.505 411.657C314.447 389.779 298.678 370.307 276.875 367.657C236.628 362.767 227.985 308.197 264.75 291.109Z" stroke="url(#paint15_linear_471_42014)" stroke-width="0.4"/>
<path opacity="0.586207" d="M267.834 284.812C287.903 276.732 297.942 254.186 290.517 233.866C276.813 196.362 320.835 164.379 352.268 189.001C369.3 202.342 393.844 199.762 407.73 183.171C433.357 152.552 483.066 174.684 477.46 214.217C474.422 235.637 488.928 255.604 510.239 259.334C549.57 266.218 555.257 320.334 518.218 335.245C498.148 343.324 488.11 365.87 495.535 386.191C509.238 423.694 465.217 455.677 433.784 431.056C416.752 417.715 392.207 420.294 378.322 436.885C352.695 467.504 302.985 445.372 308.592 405.839C311.63 384.419 297.123 364.452 275.813 360.722C236.482 353.838 230.794 299.723 267.834 284.812Z" stroke="url(#paint16_linear_471_42014)" stroke-width="0.4"/>
<path opacity="0.62069" d="M271.22 278.782C291.373 271.871 302.407 250.216 296.152 229.85C284.61 192.268 329.544 163.088 359.182 188.917C375.244 202.915 399.514 201.643 414.025 186.043C440.801 157.257 488.538 181.58 480.988 220.163C476.897 241.071 490.134 261.454 510.899 266.221C549.216 275.017 552.02 328.52 514.832 341.273C494.679 348.184 483.645 369.839 489.9 390.205C501.441 427.787 456.508 456.967 426.87 431.137C410.808 417.14 386.537 418.412 372.027 434.011C345.251 462.798 297.514 438.474 305.064 399.892C309.155 378.983 295.918 358.6 275.153 353.834C236.835 345.038 234.031 291.535 271.22 278.782Z" stroke="url(#paint17_linear_471_42014)" stroke-width="0.4"/>
<path opacity="0.655172" d="M274.888 273.034C295.058 267.278 307.022 246.555 301.922 226.209C292.513 188.671 338.186 162.301 365.991 189.219C381.061 203.809 404.99 203.809 420.06 189.219C447.864 162.301 493.538 188.671 484.129 226.209C479.029 246.555 490.993 267.278 511.163 273.034C548.377 283.655 548.377 336.394 511.163 347.015C490.993 352.771 479.029 373.494 484.129 393.84C493.538 431.378 447.864 457.748 420.06 430.83C404.99 416.24 381.061 416.24 365.991 430.83C338.186 457.748 292.513 431.378 301.922 393.84C307.022 373.494 295.058 352.771 274.888 347.015C237.674 336.394 237.674 283.655 274.888 273.034Z" stroke="url(#paint18_linear_471_42014)" stroke-width="0.4"/>
<path opacity="0.689655" d="M278.819 267.574C298.942 262.955 311.769 243.202 307.804 222.94C300.49 185.563 346.736 162 372.675 189.887C386.737 205.004 410.257 206.237 425.822 192.672C454.534 167.65 498.063 195.918 486.882 232.325C480.821 252.062 491.513 273.047 511.043 279.744C547.069 292.098 544.353 343.93 507.233 352.451C487.11 357.07 474.282 376.823 478.247 397.084C485.561 434.461 439.316 458.024 413.377 430.138C399.315 415.02 375.795 413.788 360.23 427.352C331.518 452.375 287.989 424.107 299.17 387.699C305.231 367.963 294.538 346.978 275.008 340.28C238.982 327.926 241.698 276.095 278.819 267.574Z" stroke="url(#paint19_linear_471_42014)" stroke-width="0.4"/>
<path opacity="0.724138" d="M282.991 262.436C303.003 258.933 316.626 240.183 313.773 220.067C308.512 182.967 355.162 162.197 379.212 190.932C392.252 206.512 415.302 208.934 431.296 196.406C460.795 173.299 502.107 203.315 489.247 238.51C482.275 257.593 491.701 278.766 510.548 286.353C545.309 300.346 539.971 351.132 503.061 357.593C483.048 361.095 469.425 379.846 472.278 399.961C477.54 437.061 430.889 457.831 406.839 429.096C393.799 413.516 370.75 411.094 354.756 423.622C325.257 446.729 283.944 416.713 296.804 381.518C303.777 362.435 294.35 341.262 275.503 333.675C240.743 319.682 246.081 268.896 282.991 262.436Z" stroke="url(#paint20_linear_471_42014)" stroke-width="0.4"/>
<path opacity="0.758621" d="M287.383 257.614C307.224 255.203 321.573 237.484 319.806 217.575C316.548 180.862 363.44 162.862 385.584 192.325C397.593 208.303 420.113 211.87 436.471 200.385C466.636 179.206 505.671 210.816 491.227 244.725C483.394 263.114 491.565 284.4 509.69 292.824C543.114 308.359 535.256 357.969 498.668 362.415C478.827 364.826 464.478 382.545 466.245 402.454C469.503 439.167 422.611 457.167 400.467 427.704C388.458 411.726 365.939 408.159 349.58 419.644C319.415 440.822 280.381 409.213 294.824 375.304C302.657 356.915 294.486 335.629 276.361 327.205C242.937 311.67 250.795 262.06 287.383 257.614Z" stroke="url(#paint21_linear_471_42014)" stroke-width="0.4"/>
<path opacity="0.793103" d="M291.974 253.118C311.585 251.772 326.59 235.107 325.88 215.462C324.569 179.243 371.543 163.98 391.772 194.052C402.744 210.363 424.679 215.025 441.337 204.587C472.048 185.343 508.753 218.392 492.825 250.947C484.185 268.605 491.115 289.932 508.483 299.139C540.505 316.114 530.236 364.426 494.078 366.908C474.467 368.255 459.461 384.92 460.172 404.565C461.482 440.784 414.509 456.047 394.279 425.975C383.307 409.664 361.373 405.001 344.715 415.439C314.004 434.684 277.299 401.635 293.227 369.08C301.867 351.422 294.937 330.095 277.569 320.888C245.547 303.913 255.816 255.601 291.974 253.118Z" stroke="url(#paint22_linear_471_42014)" stroke-width="0.4"/>
<path opacity="0.827586" d="M296.74 248.959C316.066 248.646 331.657 233.055 331.97 213.73C332.547 178.106 379.447 165.539 397.759 196.102C407.693 212.682 428.99 218.388 445.883 208.997C477.023 191.684 511.356 226.017 494.044 257.157C484.652 274.05 490.359 295.348 506.939 305.282C537.502 323.594 524.935 370.493 489.311 371.071C469.985 371.384 454.394 386.975 454.081 406.3C453.504 441.924 406.604 454.491 388.292 423.928C378.359 407.348 357.061 401.642 340.168 411.033C309.028 428.346 274.695 394.012 292.007 362.873C301.399 345.98 295.692 324.682 279.112 314.748C248.549 296.436 261.116 249.536 296.74 248.959Z" stroke="url(#paint23_linear_471_42014)" stroke-width="0.4"/>
<path opacity="0.862069" d="M301.661 245.139C320.648 245.826 336.754 231.324 338.055 212.37C340.454 177.438 387.128 167.517 403.528 198.453C412.426 215.239 433.038 221.937 450.104 213.587C481.555 198.198 513.484 233.659 494.892 263.329C484.804 279.428 489.31 300.628 505.074 311.232C534.127 330.775 519.382 376.157 484.39 374.891C465.404 374.204 449.298 388.706 447.996 407.66C445.598 442.593 398.923 452.514 382.524 421.577C373.625 404.791 353.013 398.094 335.948 406.444C304.496 421.833 272.567 386.372 291.159 356.701C301.247 340.602 296.741 319.402 280.977 308.798C251.924 289.255 266.67 243.873 301.661 245.139Z" stroke="url(#paint24_linear_471_42014)" stroke-width="0.4"/>
<path opacity="0.896552" d="M306.714 241.662C325.31 243.313 341.861 229.91 344.113 211.377C348.262 177.228 394.565 169.895 409.064 201.09C416.933 218.02 436.815 225.652 453.991 218.336C485.64 204.855 515.143 241.288 495.376 269.442C484.649 284.721 487.98 305.756 502.904 316.973C530.404 337.641 513.603 381.408 479.338 378.366C460.742 376.716 444.191 390.119 441.939 408.651C437.789 442.801 391.486 450.134 376.987 418.939C369.118 402.009 349.236 394.377 332.06 401.693C300.411 415.174 270.909 378.741 290.675 350.587C301.402 335.307 298.071 314.272 283.147 303.056C255.648 282.388 272.448 238.621 306.714 241.662Z" stroke="url(#paint25_linear_471_42014)" stroke-width="0.4"/>
<path opacity="0.931035" d="M311.875 238.533C330.033 241.108 346.959 228.811 350.121 210.746C355.946 177.466 401.737 172.653 414.354 203.994C421.203 221.007 440.316 229.517 457.541 223.223C489.275 211.627 516.339 248.877 495.505 275.475C484.195 289.912 486.382 310.719 500.446 322.49C526.355 344.175 507.627 386.237 474.176 381.493C456.018 378.918 439.092 391.215 435.931 409.28C430.105 442.56 384.315 447.373 371.697 416.031C364.849 399.018 345.736 390.509 328.51 396.803C296.776 408.398 269.713 371.149 290.547 344.551C301.856 330.113 299.669 309.307 285.605 297.536C259.697 275.851 278.424 233.789 311.875 238.533Z" stroke="url(#paint26_linear_471_42014)" stroke-width="0.4"/>
<path opacity="0.965517" d="M317.124 235.756C334.798 239.215 352.029 228.025 356.059 210.471C363.48 178.14 408.624 175.774 419.385 207.152C425.227 224.189 443.533 233.516 460.749 228.229C492.46 218.49 517.081 256.403 495.287 281.411C483.454 294.989 484.529 315.506 497.716 327.772C522.005 350.365 501.482 390.644 468.927 384.274C451.252 380.815 434.022 392.005 429.992 409.558C422.571 441.889 377.427 444.255 366.666 412.877C360.824 395.841 342.518 386.513 325.301 391.801C293.591 401.539 268.97 363.626 290.764 338.618C302.597 325.041 301.522 304.523 288.335 292.257C264.046 269.664 284.569 229.386 317.124 235.756Z" stroke="url(#paint27_linear_471_42014)" stroke-width="0.4"/>
<path d="M322.437 233.329C339.587 237.628 357.054 227.543 361.906 210.541C370.841 179.233 415.21 179.233 424.145 210.541C428.997 227.543 446.464 237.628 463.615 233.329C495.195 225.413 517.38 263.837 494.734 287.229C482.436 299.932 482.436 320.101 494.734 332.804C517.38 356.196 495.195 394.621 463.615 386.705C446.464 382.406 428.997 392.49 424.145 409.492C415.21 440.8 370.841 440.8 361.906 409.492C357.054 392.49 339.587 382.406 322.437 386.705C290.856 394.621 268.672 356.196 291.317 332.804C303.615 320.101 303.615 299.932 291.317 287.229C268.672 263.837 290.856 225.413 322.437 233.329Z" stroke="url(#paint28_linear_471_42014)" stroke-width="0.4"/>
<path d="M368.712 284.145C368.054 283.408 367.245 283.039 366.282 283.039H346.59C346.415 283.039 346.272 282.985 346.164 282.876C346.055 282.77 346 282.649 346 282.52V269.52C346 269.39 346.055 269.271 346.164 269.163C346.272 269.054 346.415 269 346.59 269H367.399C372.65 269 377.18 271.103 380.987 275.305L386.042 281.349L376.196 293.114L368.712 284.145ZM405.078 275.24C408.886 271.08 413.437 269 418.732 269H439.475C439.65 269 439.781 269.044 439.869 269.129C439.956 269.217 440 269.346 440 269.52V282.52C440 282.649 439.956 282.77 439.869 282.876C439.781 282.985 439.65 283.039 439.475 283.039H419.783C418.82 283.039 418.011 283.408 417.354 284.145L402.847 301.434L417.419 318.853C418.076 319.548 418.863 319.894 419.783 319.894H439.475C439.65 319.894 439.781 319.949 439.869 320.057C439.956 320.166 440 320.307 440 320.479V333.479C440 333.608 439.956 333.729 439.869 333.836C439.781 333.944 439.65 333.998 439.475 333.998H418.732C413.437 333.998 408.907 331.897 405.144 327.693L393.066 313.264L380.987 327.693C377.18 331.897 372.628 333.998 367.334 333.998H346.59C346.415 333.998 346.283 333.944 346.196 333.836C346.108 333.727 346.065 333.587 346.065 333.412V320.412C346.065 320.283 346.108 320.164 346.196 320.055C346.283 319.947 346.415 319.893 346.59 319.893H366.282C367.201 319.893 368.01 319.525 368.712 318.787L382.955 301.758L405.078 275.24Z" fill="url(#paint29_linear_471_42014)"/>
<defs>
<linearGradient id="paint0_linear_471_42014" x1="75.6721" y1="276.67" x2="710.379" y2="343.38" gradientUnits="userSpaceOnUse">
<stop stop-color="#ED1EFF"/>
<stop offset="1" stop-color="#00D1FF"/>
</linearGradient>
<linearGradient id="paint1_linear_471_42014" x1="81.7276" y1="260.722" x2="704.324" y2="359.331" gradientUnits="userSpaceOnUse">
<stop stop-color="#ED1EFF"/>
<stop offset="1" stop-color="#00D1FF"/>
</linearGradient>
<linearGradient id="paint2_linear_471_42014" x1="88.572" y1="245.312" x2="697.479" y2="374.739" gradientUnits="userSpaceOnUse">
<stop stop-color="#ED1EFF"/>
<stop offset="1" stop-color="#00D1FF"/>
</linearGradient>
<linearGradient id="paint3_linear_471_42014" x1="96.1663" y1="230.484" x2="689.885" y2="389.571" gradientUnits="userSpaceOnUse">
<stop stop-color="#ED1EFF"/>
<stop offset="1" stop-color="#00D1FF"/>
</linearGradient>
<linearGradient id="paint4_linear_471_42014" x1="104.467" y1="216.266" x2="681.584" y2="403.782" gradientUnits="userSpaceOnUse">
<stop stop-color="#ED1EFF"/>
<stop offset="1" stop-color="#00D1FF"/>
</linearGradient>
<linearGradient id="paint5_linear_471_42014" x1="113.432" y1="202.7" x2="672.619" y2="417.351" gradientUnits="userSpaceOnUse">
<stop stop-color="#ED1EFF"/>
<stop offset="1" stop-color="#00D1FF"/>
</linearGradient>
<linearGradient id="paint6_linear_471_42014" x1="123.017" y1="189.811" x2="663.035" y2="430.243" gradientUnits="userSpaceOnUse">
<stop stop-color="#ED1EFF"/>
<stop offset="1" stop-color="#00D1FF"/>
</linearGradient>
<linearGradient id="paint7_linear_471_42014" x1="133.174" y1="177.625" x2="652.877" y2="442.427" gradientUnits="userSpaceOnUse">
<stop stop-color="#ED1EFF"/>
<stop offset="1" stop-color="#00D1FF"/>
</linearGradient>
<linearGradient id="paint8_linear_471_42014" x1="143.857" y1="166.168" x2="642.194" y2="453.882" gradientUnits="userSpaceOnUse">
<stop stop-color="#ED1EFF"/>
<stop offset="1" stop-color="#00D1FF"/>
</linearGradient>
<linearGradient id="paint9_linear_471_42014" x1="155.018" y1="155.461" x2="631.033" y2="464.589" gradientUnits="userSpaceOnUse">
<stop stop-color="#ED1EFF"/>
<stop offset="1" stop-color="#00D1FF"/>
</linearGradient>
<linearGradient id="paint10_linear_471_42014" x1="166.608" y1="145.524" x2="619.444" y2="474.528" gradientUnits="userSpaceOnUse">
<stop stop-color="#ED1EFF"/>
<stop offset="1" stop-color="#00D1FF"/>
</linearGradient>
<linearGradient id="paint11_linear_471_42014" x1="178.576" y1="136.371" x2="607.475" y2="483.686" gradientUnits="userSpaceOnUse">
<stop stop-color="#ED1EFF"/>
<stop offset="1" stop-color="#00D1FF"/>
</linearGradient>
<linearGradient id="paint12_linear_471_42014" x1="190.875" y1="128.009" x2="595.177" y2="492.044" gradientUnits="userSpaceOnUse">
<stop stop-color="#ED1EFF"/>
<stop offset="1" stop-color="#00D1FF"/>
</linearGradient>
<linearGradient id="paint13_linear_471_42014" x1="203.452" y1="120.454" x2="582.599" y2="499.601" gradientUnits="userSpaceOnUse">
<stop stop-color="#ED1EFF"/>
<stop offset="1" stop-color="#00D1FF"/>
</linearGradient>
<linearGradient id="paint14_linear_471_42014" x1="216.258" y1="113.705" x2="569.793" y2="506.345" gradientUnits="userSpaceOnUse">
<stop stop-color="#ED1EFF"/>
<stop offset="1" stop-color="#00D1FF"/>
</linearGradient>
<linearGradient id="paint15_linear_471_42014" x1="229.244" y1="107.773" x2="556.807" y2="512.28" gradientUnits="userSpaceOnUse">
<stop stop-color="#ED1EFF"/>
<stop offset="1" stop-color="#00D1FF"/>
</linearGradient>
<linearGradient id="paint16_linear_471_42014" x1="242.36" y1="102.655" x2="543.691" y2="517.402" gradientUnits="userSpaceOnUse">
<stop stop-color="#ED1EFF"/>
<stop offset="1" stop-color="#00D1FF"/>
</linearGradient>
<linearGradient id="paint17_linear_471_42014" x1="255.557" y1="98.3433" x2="530.495" y2="521.711" gradientUnits="userSpaceOnUse">
<stop stop-color="#ED1EFF"/>
<stop offset="1" stop-color="#00D1FF"/>
</linearGradient>
<linearGradient id="paint18_linear_471_42014" x1="268.785" y1="94.8338" x2="517.266" y2="525.215" gradientUnits="userSpaceOnUse">
<stop stop-color="#ED1EFF"/>
<stop offset="1" stop-color="#00D1FF"/>
</linearGradient>
<linearGradient id="paint19_linear_471_42014" x1="281.999" y1="92.1099" x2="504.053" y2="527.915" gradientUnits="userSpaceOnUse">
<stop stop-color="#ED1EFF"/>
<stop offset="1" stop-color="#00D1FF"/>
</linearGradient>
<linearGradient id="paint20_linear_471_42014" x1="295.151" y1="90.1839" x2="490.9" y2="529.844" gradientUnits="userSpaceOnUse">
<stop stop-color="#ED1EFF"/>
<stop offset="1" stop-color="#00D1FF"/>
</linearGradient>
<linearGradient id="paint21_linear_471_42014" x1="308.196" y1="89.0259" x2="477.855" y2="531.003" gradientUnits="userSpaceOnUse">
<stop stop-color="#ED1EFF"/>
<stop offset="1" stop-color="#00D1FF"/>
</linearGradient>
<linearGradient id="paint22_linear_471_42014" x1="321.091" y1="88.6194" x2="464.961" y2="531.407" gradientUnits="userSpaceOnUse">
<stop stop-color="#ED1EFF"/>
<stop offset="1" stop-color="#00D1FF"/>
</linearGradient>
<linearGradient id="paint23_linear_471_42014" x1="333.791" y1="88.9492" x2="452.26" y2="531.08" gradientUnits="userSpaceOnUse">
<stop stop-color="#ED1EFF"/>
<stop offset="1" stop-color="#00D1FF"/>
</linearGradient>
<linearGradient id="paint24_linear_471_42014" x1="346.258" y1="89.99" x2="439.794" y2="530.04" gradientUnits="userSpaceOnUse">
<stop stop-color="#ED1EFF"/>
<stop offset="1" stop-color="#00D1FF"/>
</linearGradient>
<linearGradient id="paint25_linear_471_42014" x1="358.451" y1="91.7183" x2="427.6" y2="528.31" gradientUnits="userSpaceOnUse">
<stop stop-color="#ED1EFF"/>
<stop offset="1" stop-color="#00D1FF"/>
</linearGradient>
<linearGradient id="paint26_linear_471_42014" x1="370.333" y1="94.1083" x2="415.718" y2="525.917" gradientUnits="userSpaceOnUse">
<stop stop-color="#ED1EFF"/>
<stop offset="1" stop-color="#00D1FF"/>
</linearGradient>
<linearGradient id="paint27_linear_471_42014" x1="381.869" y1="97.1365" x2="404.182" y2="522.893" gradientUnits="userSpaceOnUse">
<stop stop-color="#ED1EFF"/>
<stop offset="1" stop-color="#00D1FF"/>
</linearGradient>
<linearGradient id="paint28_linear_471_42014" x1="393.026" y1="100.77" x2="393.026" y2="519.264" gradientUnits="userSpaceOnUse">
<stop stop-color="#ED1EFF"/>
<stop offset="1" stop-color="#00D1FF"/>
</linearGradient>
<linearGradient id="paint29_linear_471_42014" x1="393" y1="269" x2="393" y2="333.998" gradientUnits="userSpaceOnUse">
<stop stop-color="#00D1FF"/>
<stop offset="1" stop-color="#02111D" stop-opacity="0"/>
</linearGradient>
</defs>
</svg>
