<svg width="24" height="24" viewBox="0 0 24 24" fill="none" xmlns="http://www.w3.org/2000/svg">
<path d="M24 4.31C23.12 4.7 22.17 4.97 21.17 5.09C22.19 4.48 22.97 3.52 23.34 2.37C22.39 2.93 21.33 3.34 20.21 3.57C19.31 2.6 18.03 2 16.62 2C13.44 2 11.11 4.97 11.82 8.05C7.73 7.84 4.1 5.88 1.67 2.9C0.38 5.11 1 8.01 3.19 9.48C2.39 9.45 1.63 9.23 0.96 8.86C0.91 11.14 2.54 13.27 4.91 13.75C4.22 13.94 3.46 13.98 2.69 13.83C3.32 15.79 5.13 17.21 7.29 17.25C5.22 18.88 2.61 19.6 0 19.29C2.18 20.69 4.77 21.5 7.55 21.5C16.69 21.5 21.86 13.78 21.54 6.85C22.5 6.16 23.34 5.3 24 4.31Z" fill="#ffffff"/>
</svg>
