<svg width="65" height="65" viewBox="0 0 65 65" fill="none" xmlns="http://www.w3.org/2000/svg">
<path fill-rule="evenodd" clip-rule="evenodd" d="M10.2835 10.7807L5.00024 10.7807V8.00012H51.9645H60.0002V10.7807L54.7451 10.7807V34.2767C54.7451 37.1967 54.1695 40.0882 53.0511 42.7856C51.9327 45.483 50.2936 47.9335 48.2274 49.9969C46.1613 52.0603 43.7086 53.6962 41.0097 54.8109C38.3108 55.9257 35.4186 56.4974 32.4986 56.4935C26.6069 56.4931 20.9567 54.1524 16.7907 49.9864C12.6242 45.8199 10.2835 40.1689 10.2835 34.2767V10.7807ZM28.8302 28.6876L27.3565 26.4909C27.2477 26.3703 27.1001 26.2916 26.9394 26.2685H22.6017V23.4879H27.0784C27.6125 23.5023 28.1372 23.6315 28.6169 23.8666C29.0967 24.1017 29.5203 24.4372 29.859 24.8504L30.9156 26.1572L28.8302 28.6876ZM30.4707 30.5784L35.0587 24.5723C35.4012 24.1656 35.8262 23.8363 36.3056 23.6062C36.7849 23.3761 37.3077 23.2505 37.8393 23.2376H42.316V26.2407H38.0617C37.9631 26.2398 37.8654 26.259 37.7746 26.2973C37.6837 26.3355 37.6017 26.392 37.5334 26.4631L34.4748 30.2169L37.5612 33.9707C37.6252 34.0397 37.7026 34.095 37.7886 34.1333C37.8747 34.1715 37.9676 34.1919 38.0617 34.1931H42.316V37.1684H38.0617C37.5283 37.1503 37.0048 37.0196 36.5256 36.7848C36.0463 36.5499 35.6222 36.2163 35.2811 35.8059L32.5005 32.8028L29.9424 35.9171C29.6001 36.3262 29.1758 36.6589 28.6968 36.8936C28.2178 37.1283 27.6949 37.2598 27.1618 37.2796H22.6851V34.499H26.9394C27.0363 34.4979 27.1317 34.4749 27.2184 34.4315C27.3052 34.3882 27.3809 34.3257 27.4399 34.2487L30.4707 30.5784ZM39.9482 52.2409C37.5871 53.2162 35.0569 53.7164 32.5023 53.713C27.3474 53.713 22.4019 51.6652 18.7569 48.0202C15.1119 44.3752 13.0641 39.4315 13.0641 34.2767L13.0641 10.7807L51.9645 10.7807V34.2767C51.9645 36.8313 51.4609 39.3608 50.4825 41.7206C49.5041 44.0804 48.0702 46.2242 46.2626 48.0294C44.455 49.8346 42.3093 51.2657 39.9482 52.2409Z" fill="white"/>
</svg>
