<svg width="70" height="62" viewBox="0 0 70 62" fill="none" xmlns="http://www.w3.org/2000/svg">
<path fill-rule="evenodd" clip-rule="evenodd" d="M6.68002 3.9801L0.0299377 3.9801V0.480103H59.145H69.2599V3.9801L62.645 3.9801V33.5551C62.645 37.2307 61.9204 40.8702 60.5127 44.2655C59.105 47.6608 57.0418 50.7453 54.4411 53.3426C51.8403 55.9398 48.7531 57.999 45.3559 59.4021C41.9587 60.8053 38.3182 61.525 34.6427 61.5201C27.2267 61.5195 20.1147 58.5733 14.8708 53.3294C9.62633 48.0849 6.68002 40.9719 6.68002 33.5551V3.9801ZM59.145 3.9801L10.18 3.9801L10.18 33.5551C10.18 40.0436 12.7576 46.2664 17.3457 50.8545C21.9337 55.4426 28.1588 58.0201 34.6474 58.0201C37.8629 58.0244 41.0477 57.3948 44.0197 56.1672C46.9917 54.9397 49.6926 53.1383 51.9678 50.866C54.2431 48.5938 56.0481 45.8954 57.2796 42.925C58.5111 39.9547 59.145 36.7706 59.145 33.5551V3.9801ZM30.025 26.52L28.17 23.755C28.0331 23.6032 27.8473 23.5042 27.645 23.475H22.185V19.975H27.82C28.4922 19.9933 29.1527 20.1558 29.7566 20.4517C30.3605 20.7476 30.8937 21.17 31.32 21.69L32.65 23.335L30.025 26.52ZM32.09 28.9L37.865 21.34C38.2961 20.8281 38.8311 20.4136 39.4345 20.124C40.0379 19.8343 40.6959 19.6762 41.365 19.66H47V23.44H41.645C41.5209 23.4389 41.3979 23.4632 41.2836 23.5113C41.1692 23.5595 41.0659 23.6305 40.98 23.72L37.13 28.445L41.015 33.17C41.0956 33.2569 41.193 33.3266 41.3013 33.3747C41.4096 33.4228 41.5265 33.4485 41.645 33.45H47V37.195H41.645C40.9736 37.1723 40.3147 37.0078 39.7114 36.7122C39.1082 36.4166 38.5744 35.9967 38.145 35.48L34.645 31.7L31.425 35.62C30.9942 36.135 30.46 36.5538 29.8571 36.8492C29.2542 37.1446 28.596 37.3101 27.925 37.335H22.29V33.835H27.645C27.767 33.8337 27.8871 33.8047 27.9963 33.7501C28.1054 33.6955 28.2007 33.6169 28.275 33.52L32.09 28.9Z" fill="white"/>
</svg>
