<svg width="46" height="48" viewBox="0 0 46 48" fill="none" xmlns="http://www.w3.org/2000/svg">
<path d="M39.163 47.4375C38.8938 47.4375 38.6454 47.3934 38.4178 47.3053C38.1903 47.2171 37.9675 47.0641 37.7496 46.8462L25.288 34.4327C25.0701 34.2148 24.9171 33.992 24.8289 33.7644C24.7408 33.5368 24.6967 33.2884 24.6967 33.0192C24.6967 32.75 24.7408 32.5016 24.8289 32.274C24.9171 32.0465 25.0701 31.8237 25.288 31.6057L29.4467 27.4471C29.6647 27.2291 29.8874 27.0761 30.115 26.988C30.3425 26.8998 30.5909 26.8557 30.8601 26.8557C31.1294 26.8557 31.3778 26.8998 31.6054 26.988C31.8329 27.0761 32.0557 27.2291 32.2736 27.4471L44.7351 39.9087C44.9531 40.1266 45.1062 40.3493 45.1943 40.5769C45.2825 40.8045 45.3265 41.0529 45.3265 41.3221C45.3265 41.5913 45.2825 41.8397 45.1943 42.0673C45.1062 42.2949 44.9531 42.5176 44.7351 42.7355L40.5765 46.8462C40.3586 47.0641 40.1358 47.2171 39.9083 47.3053C39.6807 47.3934 39.4323 47.4375 39.163 47.4375ZM39.163 44.8173L42.6582 41.3221L30.8746 29.5385L27.3794 33.0337L39.163 44.8173ZM6.77364 47.4519C6.50439 47.4519 6.25358 47.4054 6.0212 47.3125C5.78883 47.2195 5.56366 47.0641 5.3457 46.8462L1.20152 42.75C0.983557 42.532 0.828099 42.3069 0.73514 42.0745C0.642182 41.8421 0.595703 41.5913 0.595703 41.3221C0.595703 41.0529 0.642182 40.7964 0.73514 40.5529C0.828099 40.3093 0.983557 40.0785 1.20152 39.8605L14.0669 26.9952H19.2832L21.2159 25.0625L10.615 14.4615H7.05245L0.739953 8.14904L6.0717 2.8173L12.3842 9.1298V12.6923L22.9851 23.2932L30.5236 15.7548L25.9131 11.1442L28.74 8.3173H23.0717L22.0428 7.33654L29.139 0.240356L30.1198 1.22111V6.93748L32.9467 4.11054L42.8794 13.9471C43.4916 14.5272 43.9451 15.1931 44.24 15.9447C44.5348 16.6963 44.6823 17.492 44.6823 18.3317C44.6823 18.9471 44.5909 19.5449 44.4083 20.125C44.2256 20.7051 43.9563 21.2532 43.6006 21.7692L38.4803 16.649L34.9323 20.1971L32.2592 17.524L21.0044 28.7789V34.0769L8.18708 46.8462C7.96912 47.0641 7.74637 47.2195 7.51883 47.3125C7.29124 47.4054 7.04285 47.4519 6.77364 47.4519ZM6.77364 44.7692L19.0813 32.4615V28.9664H15.5861L3.27845 41.274L6.77364 44.7692ZM6.77364 44.7692L3.27845 41.274L5.0332 43.0144L6.77364 44.7692Z" fill="#C8CDE5"/>
</svg>
