<svg width="46" height="46" viewBox="0 0 46 46" fill="none" xmlns="http://www.w3.org/2000/svg">
<path d="M23 45.5C19.9038 45.5 16.9872 44.9079 14.25 43.7236C11.5128 42.5393 9.12902 40.9319 7.09856 38.9014C5.0681 36.871 3.46073 34.4872 2.27644 31.75C1.09215 29.0128 0.5 26.0962 0.5 23C0.5 19.8942 1.09215 16.9751 2.27644 14.2428C3.46073 11.5104 5.0681 9.12902 7.09856 7.09856C9.12902 5.06811 11.5128 3.46073 14.25 2.27644C16.9872 1.09214 19.9038 0.5 23 0.5C26.1058 0.5 29.0249 1.09214 31.7572 2.27644C34.4896 3.46073 36.871 5.06811 38.9014 7.09856C40.9319 9.12902 42.5393 11.5104 43.7236 14.2428C44.9079 16.9751 45.5 19.8942 45.5 23C45.5 26.0962 44.9079 29.0128 43.7236 31.75C42.5393 34.4872 40.9319 36.871 38.9014 38.9014C36.871 40.9319 34.4896 42.5393 31.7572 43.7236C29.0249 44.9079 26.1058 45.5 23 45.5ZM23 43.0192C24.468 41.1346 25.6779 39.2837 26.6298 37.4664C27.5817 35.649 28.3558 33.6154 28.9519 31.3654H17.0481C17.7083 33.7436 18.4984 35.8414 19.4182 37.6587C20.3381 39.476 21.532 41.2628 23 43.0192ZM19.8173 42.6442C18.6506 41.2692 17.5857 39.5697 16.6226 37.5457C15.6594 35.5216 14.9423 33.4615 14.4711 31.3654H4.88463C6.31733 34.4744 8.34858 37.0241 10.9784 39.0144C13.6082 41.0048 16.5545 42.2148 19.8173 42.6442ZM26.1827 42.6442C29.4455 42.2148 32.3918 41.0048 35.0216 39.0144C37.6514 37.0241 39.6827 34.4744 41.1154 31.3654H31.5289C30.8975 33.4936 30.1002 35.5697 29.1371 37.5938C28.1739 39.6178 27.1891 41.3013 26.1827 42.6442ZM3.86537 28.8654H13.9519C13.7628 27.8398 13.629 26.8406 13.5505 25.8678C13.472 24.895 13.4327 23.9391 13.4327 23C13.4327 22.0609 13.472 21.105 13.5505 20.1322C13.629 19.1594 13.7628 18.1602 13.9519 17.1346H3.86537C3.59296 18 3.38063 18.9431 3.22838 19.9639C3.07613 20.9848 3 21.9968 3 23C3 24.0032 3.07613 25.0152 3.22838 26.0361C3.38063 27.0569 3.59296 28 3.86537 28.8654ZM16.4519 28.8654H29.5481C29.7372 27.8398 29.871 26.8566 29.9495 25.9159C30.028 24.9752 30.0673 24.0032 30.0673 23C30.0673 21.9968 30.028 21.0248 29.9495 20.0841C29.871 19.1434 29.7372 18.1602 29.5481 17.1346H16.4519C16.2628 18.1602 16.129 19.1434 16.0505 20.0841C15.972 21.0248 15.9327 21.9968 15.9327 23C15.9327 24.0032 15.972 24.9752 16.0505 25.9159C16.129 26.8566 16.2628 27.8398 16.4519 28.8654ZM32.0481 28.8654H42.1346C42.407 28 42.6194 27.0569 42.7716 26.0361C42.9239 25.0152 43 24.0032 43 23C43 21.9968 42.9239 20.9848 42.7716 19.9639C42.6194 18.9431 42.407 18 42.1346 17.1346H32.0481C32.2372 18.1602 32.371 19.1594 32.4496 20.1322C32.5281 21.105 32.5673 22.0609 32.5673 23C32.5673 23.9391 32.5281 24.895 32.4496 25.8678C32.371 26.8406 32.2372 27.8398 32.0481 28.8654ZM31.5289 14.6346H41.1154C39.6506 11.4615 37.6434 8.91185 35.0938 6.98556C32.5441 5.05931 29.5737 3.83335 26.1827 3.30769C27.3494 4.84294 28.3982 6.59854 29.3293 8.5745C30.2604 10.5505 30.9936 12.5705 31.5289 14.6346ZM17.0481 14.6346H28.9519C28.2917 12.2885 27.4776 10.1667 26.5096 8.26925C25.5417 6.37179 24.3718 4.60896 23 2.98075C21.6282 4.60896 20.4583 6.37179 19.4904 8.26925C18.5224 10.1667 17.7083 12.2885 17.0481 14.6346ZM4.88463 14.6346H14.4711C15.0064 12.5705 15.7396 10.5505 16.6707 8.5745C17.6018 6.59854 18.6506 4.84294 19.8173 3.30769C16.3942 3.83335 13.4159 5.06733 10.8822 7.00962C8.34856 8.95192 6.34938 11.4936 4.88463 14.6346Z" fill="#C8CDE5"/>
</svg>
