<svg width="65" height="65" viewBox="0 0 65 65" fill="none" xmlns="http://www.w3.org/2000/svg">
<path fill-rule="evenodd" clip-rule="evenodd" d="M26.9942 8.62257C30.5878 7.79387 34.322 7.78705 37.9185 8.60261C41.5151 9.41818 44.8812 11.0351 47.766 13.3328C50.6507 15.6306 52.9797 18.5498 54.5793 21.8731C56.1789 25.1963 57.0078 28.8377 57.0043 32.526L58.5022 32.5274L57.0043 32.5286C57.0068 35.5666 56.4493 38.5732 55.3656 41.3991L47.0454 34.6311L45.1552 36.9554L54.0707 44.2073C53.2078 45.7838 52.1761 47.2569 50.9964 48.6018L34.451 35.0046C33.915 34.5488 33.2342 34.2983 32.5301 34.2983C31.8261 34.2983 31.1453 34.5488 30.6093 35.0046L14.135 48.5434C12.999 47.2412 12.0014 45.8229 11.159 44.3112C11.1563 44.3019 11.1559 44.292 11.1579 44.2824C11.1603 44.2706 11.1662 44.2599 11.1747 44.2516L20.1445 36.9554L18.2543 34.6311L9.7319 41.5634C8.60085 38.7207 8.01001 35.6859 7.9959 32.6155C7.97895 28.9273 8.7946 25.2828 10.382 21.9538C11.9695 18.6247 14.2878 15.697 17.1641 13.3887C20.0405 11.0805 23.4006 9.45126 26.9942 8.62257ZM32.6499 59.9999L32.5576 59.9998L32.5301 59.9998C28.8625 59.9998 25.2319 59.2653 21.8526 57.8395C18.4734 56.4137 15.4138 54.3256 12.8544 51.6983L11.7169 50.5307L11.7824 50.4768C10.1963 48.6997 8.85381 46.7162 7.79241 44.5781L7.78798 44.5692L7.78801 44.5692C5.97223 40.8497 5.01931 36.7683 5.00029 32.6293C4.98127 28.4902 5.89663 24.4002 7.67813 20.6642C9.45964 16.9282 12.0613 13.6425 15.2893 11.052C18.5173 8.46159 22.2882 6.63322 26.3211 5.70322C30.354 4.77321 34.5447 4.76556 38.581 5.68083C42.6172 6.59609 46.3948 8.41067 49.6322 10.9893C52.8696 13.5679 55.4833 16.8441 57.2785 20.5736C59.0734 24.3027 60.0037 28.3888 60 32.5275C60.0032 36.6818 59.0724 40.7837 57.2765 44.5297L57.271 44.5411C57.2046 44.6766 57.1371 44.8115 57.0686 44.9458C57.0149 45.1919 56.9306 45.432 56.8166 45.6604L56.8022 45.6891L56.7866 45.7172C55.5747 47.9031 54.0737 49.9156 52.324 51.7002C49.7649 54.3267 46.7059 56.4142 43.3274 57.8396C39.9481 59.2654 36.3176 59.9999 32.6499 59.9999ZM32.5303 37.3038L48.877 50.7377C48.326 51.2286 47.752 51.6955 47.1563 52.1365C44.0038 54.4706 40.3371 56.0137 36.4644 56.6362C32.5917 57.2587 28.6261 56.9423 24.9011 55.7136C22.6989 54.9873 20.6188 53.9546 18.7194 52.6522C17.8533 52.0526 17.0259 51.397 16.2425 50.6891L32.5227 37.3103L32.5303 37.3038ZM27.4158 21.2219C27.5037 21.2581 27.5828 21.3129 27.6475 21.3825L29.1453 23.3298L31.1224 20.9031L30.1039 19.6748C29.7755 19.2691 29.3598 18.9426 28.8879 18.7196C28.416 18.4965 27.8998 18.3827 27.3779 18.3865H23.0941V21.1728H27.1382C27.2332 21.1689 27.3279 21.1857 27.4158 21.2219ZM36.1971 18.624C35.7214 18.8412 35.2983 19.1588 34.9569 19.5549L30.6431 24.6481L27.6475 28.1533C27.5843 28.2269 27.5062 28.2862 27.4185 28.3275C27.3307 28.3688 27.2352 28.3912 27.1382 28.393H23.184V31.2092H27.3479C27.8766 31.2096 28.3987 31.0914 28.8757 30.8632C29.3526 30.6351 29.7724 30.3028 30.1039 29.891L32.5304 26.895L34.9868 29.891C35.3123 30.3022 35.7266 30.6344 36.1987 30.8627C36.6708 31.091 37.1885 31.2094 37.7129 31.2092H41.9667V28.5428H37.9226C37.7434 28.5303 37.5741 28.4562 37.4432 28.3331L34.4476 24.7379L37.4432 21.1728C37.5021 21.1038 37.5758 21.0491 37.6588 21.0128C37.7418 20.9765 37.832 20.9595 37.9226 20.963H41.9667V18.2966H37.7129C37.1899 18.2951 36.6728 18.4068 36.1971 18.624Z" fill="white"/>
</svg>
