<svg width="65" height="66" viewBox="0 0 65 66" fill="none" xmlns="http://www.w3.org/2000/svg">
<path fill-rule="evenodd" clip-rule="evenodd" d="M26.1439 5.07323C30.3424 4.10511 34.7054 4.09714 38.9075 5.04991C43.1096 6.00269 47.0424 7.89164 50.4128 10.5759C53.7833 13.2603 56.5044 16.6707 58.3733 20.553C60.2422 24.4354 61.2107 28.6895 61.2066 32.9982L62.9566 32.9999L61.2066 33.0013C61.2095 36.5504 60.5581 40.0628 59.2919 43.3643L49.5709 35.4575L47.3625 38.1728L57.779 46.6449C56.7708 48.4867 55.5654 50.2076 54.1871 51.7787L34.856 35.8938C34.2297 35.3613 33.4343 35.0687 32.6117 35.0687C31.7891 35.0687 30.9937 35.3613 30.3674 35.8938L11.1195 51.7104C9.79233 50.1891 8.62675 48.5322 7.64255 46.7662C7.63939 46.7553 7.6389 46.7437 7.64122 46.7325C7.64405 46.7188 7.65093 46.7063 7.66091 46.6965L18.1409 38.1728L15.9325 35.4575L5.97521 43.5561C4.65375 40.2351 3.96344 36.6897 3.94695 33.1028C3.92715 28.7941 4.88012 24.5365 6.73483 20.6473C8.58954 16.7582 11.2982 13.3378 14.6588 10.6412C18.0194 7.94464 21.9453 6.04134 26.1439 5.07323ZM32.7517 65.0945L32.6345 65.0943L32.6117 65.0943C28.3265 65.0943 24.0847 64.2362 20.1365 62.5705C16.1883 60.9049 12.6136 58.4655 9.62323 55.3961L8.2942 54.032L8.37088 53.969C6.51781 51.893 4.94928 49.5758 3.7092 47.0781L3.70402 47.0677L3.70406 47.0676C1.58257 42.7224 0.469218 37.9543 0.446991 33.1189C0.424764 28.2834 1.49424 23.5053 3.57569 19.1408C5.65713 14.7762 8.69687 10.9377 12.4683 7.91142C16.2397 4.88516 20.6456 2.74919 25.3575 1.66272C30.0693 0.576246 34.9656 0.567304 39.6814 1.63656C44.3972 2.70581 48.8108 4.82568 52.5933 7.83814C56.3758 10.8506 59.4295 14.678 61.5269 19.0349C63.6241 23.3914 64.711 28.165 64.7066 33C64.7103 37.8532 63.6228 42.6452 61.5246 47.0214L61.5181 47.0349C61.4405 47.1932 61.3616 47.3509 61.2815 47.5078C61.2188 47.7953 61.1204 48.0757 60.9871 48.3424L60.9704 48.3759L60.9522 48.4088C59.5362 50.9624 57.7824 53.3135 55.7382 55.3984C52.7482 58.4668 49.1742 60.9055 45.2269 62.5707C41.2787 64.2364 37.0369 65.0945 32.7517 65.0945ZM32.6119 38.5798L51.7108 54.274C51.0671 54.8475 50.3965 55.3929 49.7005 55.9081C46.0172 58.6349 41.7332 60.4376 37.2085 61.1648C32.6837 61.892 28.0506 61.5224 23.6983 60.087C21.1229 59.2377 18.6905 58.0298 16.4696 56.5063C15.4599 55.8069 14.4952 55.0424 13.5818 54.2171L32.603 38.5874L32.6119 38.5798ZM26.636 19.7924C26.7387 19.8347 26.831 19.8987 26.9067 19.98L28.6567 22.255L30.9667 19.42L29.7767 17.985C29.3929 17.5111 28.9073 17.1296 28.3559 16.8691C27.8045 16.6085 27.2015 16.4756 26.5917 16.48H21.5867V19.735H26.3117C26.4227 19.7305 26.5333 19.7501 26.636 19.7924ZM36.8957 16.7575C36.3399 17.0112 35.8456 17.3822 35.4467 17.845L30.4067 23.795L26.9067 27.89C26.8328 27.9759 26.7416 28.0453 26.6391 28.0935C26.5365 28.1418 26.425 28.1679 26.3117 28.17H21.6917V31.46H26.5567C27.1744 31.4605 27.7844 31.3224 28.3416 31.0558C28.8989 30.7893 29.3893 30.4012 29.7767 29.92L32.6117 26.42L35.4817 29.92C35.862 30.4004 36.346 30.7885 36.8976 31.0552C37.4492 31.3219 38.054 31.4603 38.6667 31.46H43.6367V28.345H38.9117C38.7023 28.3304 38.5045 28.2438 38.3517 28.1L34.8517 23.9L38.3517 19.735C38.4204 19.6545 38.5065 19.5906 38.6035 19.5482C38.7005 19.5057 38.8059 19.4858 38.9117 19.49H43.6367V16.375H38.6667C38.0557 16.3733 37.4515 16.5037 36.8957 16.7575Z" fill="white"/>
</svg>
