<svg width="65" height="65" viewBox="0 0 65 65" fill="none" xmlns="http://www.w3.org/2000/svg">
<path fill-rule="evenodd" clip-rule="evenodd" d="M28.3814 7.17719C28.4475 7.21027 28.5041 7.25979 28.5456 7.32101L29.6521 8.7514L31.1365 6.97016L30.3808 6.05255C30.13 5.75138 29.8166 5.50845 29.4624 5.34067C29.1081 5.17288 28.7216 5.08426 28.3297 5.08097H25.1721V7.13209H28.1678C28.2417 7.12858 28.3152 7.14411 28.3814 7.17719ZM34.8531 5.25306C34.5039 5.41599 34.1937 5.65179 33.9433 5.9446L30.6507 9.9119L28.5456 12.6107C28.4459 12.7124 28.3101 12.7706 28.1678 12.7727H25.1721V14.9048H28.3297C28.7216 14.9015 29.1081 14.8128 29.4624 14.6451C29.8166 14.4773 30.13 14.2344 30.3808 13.9332L32.1621 11.7471L33.9703 14.0141C34.2182 14.3119 34.5273 14.5528 34.8765 14.7204C35.2258 14.8881 35.6071 14.9786 35.9944 14.9857H39.1521V12.7187H36.1563C36.0899 12.7171 36.0245 12.702 35.9641 12.6741C35.9038 12.6463 35.8498 12.6063 35.8055 12.5568L33.6194 9.85792L35.8055 7.15908C35.8427 7.1 35.8946 7.05156 35.9561 7.01846C36.0175 6.98536 36.0865 6.96872 36.1563 6.97016H39.0711V5H35.9674C35.5822 5.00384 35.2022 5.09013 34.8531 5.25306ZM42.1412 12.174C44.1699 13.7148 45.812 15.7068 46.9373 17.9922C48.0627 20.2776 48.6405 22.7937 48.625 25.3411V25.3493C48.625 25.7539 48.625 31.8244 48.6048 37.8843C48.5947 40.9147 48.5795 43.9398 48.5568 46.2517C48.5454 47.4083 48.5322 48.3821 48.5168 49.0873C48.5122 49.3009 48.5074 49.4874 48.5025 49.6454L44.1966 52.7245L41.4461 54.7152V42.4819L46.4389 39.783V25.2696L33.5115 31.9209V41.7778C32.6135 41.8539 31.7106 41.8539 30.8126 41.7778V31.9249L17.9931 25.2588V39.783L22.986 42.4819V54.7486L20.1275 52.7245L20.1224 52.7209L15.8575 49.6711C15.8469 47.8494 15.8134 42.8323 15.78 37.8292L15.7783 37.5703L15.7783 37.5689C15.7384 31.5862 15.6991 25.7025 15.6991 25.3493L15.6991 25.3421C15.6855 22.7947 16.2642 20.279 17.3896 17.9936C18.515 15.7083 20.1562 13.7157 22.1837 12.1734L20.5497 10.0254C18.1893 11.821 16.2786 14.1407 14.9684 16.8014C13.6588 19.4609 12.985 22.3884 13.0003 25.3528C13.0005 25.7468 13.0392 31.5418 13.0786 37.4487L13.0787 37.4604L13.0812 37.8472C13.1218 43.9184 13.1622 49.9823 13.1622 50.3676V51.0616L18.5576 54.9198L18.5627 54.9234L25.6848 59.9667V40.8728L20.692 38.174V29.7041L28.1138 33.5634V44.1261L29.253 44.3057C31.1805 44.6097 33.1436 44.6097 35.0711 44.3057L36.2103 44.1261V33.5674L43.7401 29.6933V38.174L38.7472 40.8728V60.0001L45.7665 54.9198L45.7727 54.9153L51.0177 51.1647L51.1298 50.6604C51.1589 50.5293 51.1689 50.3907 51.1728 50.3359L51.1731 50.3312C51.1793 50.2459 51.1846 50.1441 51.1893 50.032C51.1987 49.8063 51.2072 49.5058 51.2151 49.1459C51.2307 48.4244 51.2441 47.438 51.2555 46.2782C51.2783 43.9574 51.2935 40.9252 51.3036 37.8933C51.3238 31.8474 51.3239 25.7919 51.3239 25.3532C51.3412 22.3883 50.6684 19.46 49.3586 16.8C48.0481 14.1387 46.1359 11.8191 43.7736 10.0248L42.1412 12.174ZM13.0003 25.3528L13.0003 25.3565L14.3497 25.3493H13.0003L13.0003 25.3528Z" fill="white"/>
</svg>
