<svg width="252" height="53" viewBox="0 0 252 53" fill="none" xmlns="http://www.w3.org/2000/svg">
<path d="M86.1111 9.22561V44.6503H79.2222V9.22561H86.1111Z" fill="#FF9B69"/>
<path d="M119.685 9.22561V44.6503H114.444L99.4815 23.0008V44.6503H92.5926V9.22561H97.8333L112.796 30.8375V9.22561H119.685Z" fill="#FF9B69"/>
<path d="M133.056 15.8971V24.2975H146.611V30.969H133.056V44.6315H126.167V9.22561H147.019V15.8971H133.056Z" fill="#FF9B69"/>
<path d="M158.944 9.22561V44.6503H152.056V9.22561H158.944Z" fill="#FF9B69"/>
<path d="M192.5 9.22561V44.6503H187.259L172.296 23.0008V44.6503H165.407V9.22561H170.648L185.611 30.8375V9.22561H192.5Z" fill="#FF9B69"/>
<path d="M220.574 37.96V44.6315H198.982V9.22561H220.315V15.8971H205.852V23.4331H219.074V30.0106H205.852V37.96H220.574Z" fill="#FF9B69"/>
<path d="M244.167 44.6315L237.389 33.0926L230.611 44.6315H222.833L233.5 26.4587L223.37 9.20681H231.148L237.389 19.8248L243.63 9.20681H251.407L241.278 26.4023L252 44.6127H244.167V44.6315Z" fill="#FF9B69"/>
<path d="M41.5 16.2917V52.75H0V0.75H11.463V9.18802H7.96296V44.669H33.537V16.2917H41.5Z" fill="#FF9B69"/>
<path d="M58.4074 0.75V52.75H46.9444V44.669H50.4444V8.83095H24.8519V37.2083H16.8889V0.75H58.4074Z" fill="#FF9B69"/>
</svg>
