<svg width="50" height="72" viewBox="0 0 50 72" fill="none" xmlns="http://www.w3.org/2000/svg">
<path fill-rule="evenodd" clip-rule="evenodd" d="M20.047 2.87366C20.1328 2.91656 20.2062 2.98078 20.26 3.06017L21.695 4.91517L23.62 2.60517L22.64 1.41517C22.3147 1.0246 21.9083 0.709559 21.4489 0.491965C20.9896 0.274371 20.4883 0.159443 19.98 0.155171H15.885V2.81517H19.77C19.8659 2.81062 19.9612 2.83076 20.047 2.87366ZM28.4398 0.378356C27.9871 0.589653 27.5848 0.895445 27.26 1.27517L22.99 6.42017L20.26 9.92017C20.1308 10.0521 19.9547 10.1275 19.77 10.1302H15.885V12.8952H19.98C20.4883 12.8909 20.9896 12.776 21.4489 12.5584C21.9083 12.3408 22.3147 12.0257 22.64 11.6352L24.95 8.80017L27.295 11.7402C27.6165 12.1263 28.0173 12.4387 28.4703 12.6561C28.9232 12.8735 29.4177 12.9909 29.92 13.0002H34.015V10.0602H30.13C30.0438 10.0582 29.959 10.0385 29.8807 10.0024C29.8025 9.96624 29.7325 9.91444 29.675 9.85017L26.84 6.35017L29.675 2.85017C29.7233 2.77356 29.7906 2.71074 29.8703 2.66781C29.95 2.62488 30.0395 2.6033 30.13 2.60517H33.91V0.0501709H29.885C29.3854 0.0551558 28.8926 0.167059 28.4398 0.378356ZM37.8915 9.35373C40.5224 11.3519 42.6519 13.9353 44.1113 16.8991C45.5708 19.8629 46.3201 23.1259 46.3 26.4295V26.4401C46.3 26.9648 46.3 34.8374 46.2738 42.6962C46.2606 46.6261 46.241 50.5492 46.2115 53.5474C46.1968 55.0474 46.1796 56.3102 46.1597 57.2248C46.1537 57.5017 46.1475 57.7436 46.1412 57.9486L40.5571 61.9416L36.99 64.5233V48.6585L43.465 45.1585V26.3367L26.7 34.9625V47.7454C25.5354 47.8441 24.3646 47.8441 23.2 47.7454V34.9677L6.575 26.3227V45.1585L13.05 48.6585V64.5666L9.34292 61.9416L9.33632 61.9369L3.80548 57.9819C3.79166 55.6194 3.74826 49.1129 3.70496 42.6247L3.70272 42.2889C3.65093 34.5296 3.6 26.8982 3.60002 26.4401L3.59997 26.4308C3.58237 23.1272 4.33291 19.8647 5.79236 16.9009C7.25181 13.9371 9.38021 11.3531 12.0095 9.35293L9.89046 6.56733C6.82939 8.89596 4.3515 11.9043 2.65241 15.3547C0.954027 18.8037 0.0802606 22.6002 0.0999975 26.4446C0.100301 26.9556 0.15046 34.4709 0.201588 42.1313L0.201689 42.1465L0.205037 42.6481C0.257584 50.5214 0.309998 58.3854 0.309998 58.8851V59.7851L7.30708 64.7886L7.31368 64.7933L16.55 71.3336V46.5718L10.075 43.0718V32.0876L19.7 37.0926V50.7908L21.1774 51.0238C23.677 51.4179 26.223 51.4179 28.7226 51.0238L30.2 50.7908V37.0978L39.965 32.0736V43.0718L33.49 46.5718V71.377L42.5929 64.7886L42.601 64.7828L49.403 59.9189L49.5483 59.2648C49.5861 59.0948 49.599 58.9151 49.6041 58.844L49.6045 58.8378C49.6125 58.7273 49.6193 58.5952 49.6254 58.4499C49.6377 58.1572 49.6488 57.7674 49.6589 57.3008C49.6792 56.3651 49.6965 55.0858 49.7113 53.5818C49.7409 50.572 49.7606 46.6398 49.7737 42.7079C49.7999 34.8672 49.8 27.0141 49.8 26.4452C49.8225 22.6001 48.95 18.8025 47.2513 15.3529C45.5518 11.9016 43.0721 8.8934 40.0085 6.56653L37.8915 9.35373ZM0.0999975 26.4446L0.100023 26.4495L1.85 26.4401H0.0999981L0.0999975 26.4446Z" fill="white"/>
</svg>
