<svg width="51" height="46" viewBox="0 0 51 46" fill="none" xmlns="http://www.w3.org/2000/svg">
<path d="M24.255 42.8557C24.5819 42.8557 24.9169 42.782 25.2598 42.6346C25.6028 42.4871 25.88 42.3077 26.0915 42.0962L45.582 22.6057C46.2102 21.9775 46.6949 21.3349 47.0363 20.6778C47.3776 20.0208 47.5483 19.2997 47.5483 18.5144C47.5483 17.7195 47.3776 16.9479 47.0363 16.1995C46.6949 15.4511 46.2102 14.7676 45.582 14.149L36.207 4.77403C35.5883 4.14582 34.9529 3.68507 34.3007 3.39178C33.6485 3.09853 32.9249 2.9519 32.13 2.9519C31.3448 2.9519 30.6156 3.09853 29.9425 3.39178C29.2694 3.68507 28.6348 4.14582 28.0387 4.77403L25.8608 6.95191L30.4858 11.5913C30.9826 12.0785 31.3528 12.633 31.5964 13.2548C31.84 13.8766 31.9618 14.508 31.9618 15.149C31.9618 16.4503 31.5363 17.5264 30.6853 18.3773C29.8344 19.2283 28.7583 19.6538 27.457 19.6538C26.8159 19.6538 26.1901 19.5561 25.5795 19.3605C24.9689 19.165 24.4201 18.8237 23.9329 18.3365L19.1493 13.5673L8.35596 24.3605C8.10276 24.6137 7.91286 24.9014 7.78628 25.2235C7.65965 25.5457 7.59634 25.8702 7.59634 26.1971C7.59634 26.7868 7.78544 27.2732 8.16365 27.6562C8.54186 28.0392 9.02584 28.2307 9.61559 28.2307C9.94251 28.2307 10.2774 28.157 10.6204 28.0096C10.9634 27.8621 11.2406 27.6826 11.4522 27.4711L19.3752 19.548L21.1445 21.3173L13.2358 29.2403C12.9826 29.4936 12.7927 29.7812 12.6661 30.1033C12.5395 30.4255 12.4762 30.75 12.4762 31.0769C12.4762 31.6346 12.6733 32.1105 13.0675 32.5048C13.4617 32.899 13.9377 33.0961 14.4954 33.0961C14.8223 33.0961 15.1573 33.0224 15.5002 32.875C15.8432 32.7275 16.1204 32.548 16.332 32.3365L24.832 23.8509L26.6012 25.6202L18.1156 34.1202C17.8945 34.3317 17.7126 34.609 17.5699 34.9519C17.4273 35.2949 17.356 35.6298 17.356 35.9567C17.356 36.5144 17.5531 36.9903 17.9473 37.3846C18.3415 37.7788 18.8175 37.9759 19.3752 37.9759C19.7021 37.9759 20.0267 37.9126 20.3488 37.786C20.6709 37.6594 20.9586 37.4695 21.2118 37.2163L29.7118 28.7307L31.481 30.5L22.981 39C22.7278 39.2532 22.5379 39.5569 22.4113 39.911C22.2847 40.2652 22.2214 40.5897 22.2214 40.8846C22.2214 41.4743 22.4289 41.9503 22.844 42.3125C23.259 42.6746 23.7294 42.8557 24.255 42.8557ZM24.2406 45.3558C22.9553 45.3558 21.8552 44.8854 20.9401 43.9447C20.025 43.004 19.6236 41.843 19.7358 40.4615C18.3191 40.4775 17.1396 40.0544 16.1973 39.1923C15.255 38.3301 14.8079 37.1266 14.856 35.5817C13.3111 35.5977 12.0939 35.1562 11.2045 34.2572C10.3151 33.3582 9.91046 32.1731 9.99059 30.7019C8.59955 30.7179 7.43609 30.3269 6.50021 29.5288C5.5643 28.7308 5.09634 27.6202 5.09634 26.1971C5.09634 25.5561 5.22055 24.9142 5.46896 24.2716C5.71734 23.629 6.08513 23.0641 6.57234 22.5769L19.1493 10.0143L25.606 16.4711C25.8175 16.6923 26.0787 16.8742 26.3897 17.0168C26.7005 17.1594 27.0515 17.2307 27.4425 17.2307C27.9778 17.2307 28.4505 17.044 28.8608 16.6707C29.271 16.2972 29.4762 15.8109 29.4762 15.2115C29.4762 14.8205 29.4048 14.4695 29.2622 14.1586C29.1196 13.8477 28.9377 13.5865 28.7166 13.375L20.1156 4.77403C19.497 4.14582 18.8536 3.68507 18.1853 3.39178C17.517 3.09853 16.7855 2.9519 15.9906 2.9519C15.2053 2.9519 14.4922 3.09853 13.8512 3.39178C13.2102 3.68507 12.5755 4.14582 11.9473 4.77403L4.33678 12.399C3.80149 12.9343 3.36878 13.5721 3.03865 14.3125C2.70853 15.0528 2.53386 15.8173 2.51465 16.6057C2.4954 17.1698 2.54346 17.7123 2.65884 18.2332C2.77426 18.754 2.95696 19.2436 3.20696 19.7019L1.31271 21.5962C0.89284 20.9263 0.564298 20.1546 0.32709 19.2812C0.0899231 18.4078 -0.0190354 17.516 0.000214608 16.6057C0.0194229 15.4711 0.246985 14.3838 0.682902 13.3437C1.11878 12.3036 1.74217 11.3782 2.55309 10.5673L10.1156 3.00478C10.9874 2.14257 11.9097 1.50153 12.8824 1.08165C13.8552 0.66182 14.9073 0.451904 16.0387 0.451904C17.1701 0.451904 18.2142 0.66182 19.1709 1.08165C20.1276 1.50153 21.0371 2.14257 21.8993 3.00478L24.0772 5.18265L26.255 3.00478C27.1268 2.14257 28.0411 1.50153 28.9978 1.08165C29.9545 0.66182 30.9986 0.451904 32.13 0.451904C33.2614 0.451904 34.3135 0.66182 35.2863 1.08165C36.259 1.50153 37.1765 2.14257 38.0387 3.00478L47.3512 12.3173C48.2134 13.1794 48.8784 14.1474 49.3464 15.2211C49.8143 16.2948 50.0483 17.3974 50.0483 18.5288C50.0483 19.6602 49.8143 20.7043 49.3464 21.661C48.8784 22.6178 48.2134 23.5272 47.3512 24.3894L27.8608 43.8653C27.3416 44.3846 26.7767 44.7628 26.1661 45C25.5555 45.2372 24.9137 45.3558 24.2406 45.3558Z" fill="#C8CDE5"/>
</svg>
