<svg width="85" height="84" viewBox="0 0 85 84" fill="none" xmlns="http://www.w3.org/2000/svg">
<path d="M42.165 64.365C36.9908 64.3624 31.9777 62.5659 27.9796 59.2816C23.9815 55.9973 21.2459 51.4283 20.2388 46.3531C19.2317 41.2779 20.0155 36.0106 22.4566 31.4485C24.8976 26.8864 28.845 23.3118 33.6261 21.3338C38.4072 19.3558 43.7263 19.0967 48.677 20.6007C53.6277 22.1047 57.9038 25.2787 60.7767 29.5819C63.6496 33.8851 64.9416 39.0514 64.4326 44.2004C63.9235 49.3494 61.6449 54.1626 57.985 57.82C55.9128 59.9043 53.4473 61.5561 50.7316 62.6797C48.0158 63.8032 45.1039 64.3761 42.165 64.365ZM42.165 23.135C39.0634 23.1393 36.0108 23.9082 33.2773 25.3736C30.5438 26.8391 28.2137 28.9559 26.4935 31.5366C24.7732 34.1174 23.7158 37.0825 23.4149 40.1694C23.1139 43.2563 23.5787 46.3698 24.768 49.2342C25.9574 52.0987 27.8347 54.6257 30.2336 56.5915C32.6326 58.5574 35.4792 59.9014 38.5215 60.5047C41.5638 61.108 44.708 60.9518 47.6755 60.0501C50.6431 59.1484 53.3426 57.5289 55.5349 55.335C58.1735 52.6946 59.9695 49.3308 60.6955 45.6693C61.4216 42.0078 61.0451 38.2132 59.6136 34.7657C58.1822 31.3183 55.7602 28.373 52.6542 26.3027C49.5482 24.2323 45.8977 23.1299 42.165 23.135Z" fill="white"/>
<path d="M29.2849 74.41H28.8299C20.3557 70.813 13.5631 64.1329 9.82495 55.72L13.045 54.355C16.406 61.8951 22.4953 67.8844 30.09 71.12H30.3699L29.5999 72.695L29.2849 74.41ZM55.6399 74.2L54.2749 70.98C61.9522 67.7601 68.0425 61.632 71.2149 53.935L74.5049 55.16V55.37C72.7559 59.5966 70.1888 63.436 66.9514 66.6675C63.7139 69.8989 59.8698 72.4588 55.6399 74.2ZM13.255 30.17L9.99995 28.875C13.4313 20.278 20.1071 13.376 28.5849 9.66003L29.9499 12.88C22.3318 16.2294 16.3356 22.4393 13.255 30.17ZM71.1099 29.82C69.5234 26.0276 67.2043 22.5854 64.2855 19.6906C61.3666 16.7957 57.9054 14.5052 54.0999 12.95L55.3249 9.66003C59.5764 11.3835 63.4447 13.9316 66.7065 17.1575C69.9684 20.3833 72.5593 24.2229 74.3299 28.455L71.1099 29.82Z" fill="white"/>
<path d="M36.355 37.5899C36.2811 37.504 36.1899 37.4347 36.0874 37.3864C35.9848 37.3382 35.8733 37.3121 35.76 37.3099H31.035V33.9849H36.04C36.6498 33.9805 37.2528 34.1135 37.8042 34.374C38.3556 34.6346 38.8412 35.016 39.225 35.49L40.415 36.96L38.105 39.7599L36.355 37.5899ZM44.895 35.4549C45.2858 34.9802 45.7777 34.5987 46.3348 34.3383C46.8919 34.078 47.5001 33.9453 48.115 33.9499H53.085V37.1699H48.36C48.2518 37.1725 48.1455 37.1989 48.0487 37.2473C47.9519 37.2957 47.8669 37.3649 47.8 37.4499L44.3 41.5799L47.8 45.7799C47.8703 45.8586 47.9567 45.9212 48.0533 45.9634C48.1499 46.0057 48.2545 46.0267 48.36 46.0249H53.085V49.1399H48.115C47.506 49.1394 46.9046 49.0042 46.354 48.7441C45.8033 48.4839 45.3171 48.1051 44.93 47.6349L42.06 44.1349L39.225 47.6349C38.8309 48.106 38.3384 48.4848 37.782 48.7449C37.2257 49.0049 36.6191 49.1398 36.005 49.1399H31.035V45.6399H35.76C35.8745 45.6456 35.9887 45.623 36.0924 45.5742C36.1961 45.5253 36.2863 45.4518 36.355 45.3599L39.68 41.9999L44.895 35.4549Z" fill="white"/>
</svg>
