<svg width="65" height="65" viewBox="0 0 65 65" fill="none" xmlns="http://www.w3.org/2000/svg">
<path d="M32.4996 51.4675C28.0999 51.4653 23.837 49.9393 20.4373 47.1495C17.0375 44.3598 14.7113 40.4788 13.855 36.1678C12.9986 31.8569 13.6651 27.3827 15.7408 23.5075C17.8166 19.6324 21.1732 16.5961 25.2387 14.9159C29.3043 13.2357 33.8273 13.0157 38.0371 14.2932C42.2469 15.5707 45.883 18.2667 48.326 21.922C50.7689 25.5773 51.8675 29.9656 51.4347 34.3392C51.0018 38.7129 49.0642 42.8014 45.952 45.908V45.908C44.19 47.6784 42.0935 49.0815 39.7842 50.0359C37.4749 50.9903 34.9988 51.4769 32.4996 51.4675V51.4675ZM32.4996 16.4459C29.8623 16.4495 27.2665 17.1026 24.9421 18.3474C22.6177 19.5922 20.6364 21.3902 19.1736 23.5824C17.7108 25.7745 16.8116 28.2932 16.5557 30.9152C16.2998 33.5373 16.695 36.182 17.7064 38.6151C18.7177 41.0482 20.314 43.1947 22.354 44.8645C24.3939 46.5344 26.8145 47.6761 29.4015 48.1885C31.9885 48.7009 34.6621 48.5683 37.1855 47.8023C39.709 47.0364 42.0044 45.6607 43.8687 43.7972V43.7972C46.1124 41.5544 47.6396 38.6971 48.257 35.587C48.8743 32.4768 48.5542 29.2536 47.337 26.3253C46.1197 23.3969 44.0602 20.8952 41.4191 19.1365C38.7779 17.3779 35.6738 16.4415 32.4996 16.4459V16.4459Z" fill="white"/>
<path d="M21.5476 60H21.1607C13.9548 56.9446 8.17871 51.2704 5 44.1243L7.7381 42.9649C10.5961 49.3696 15.7741 54.457 22.2321 57.2054H22.4702L21.8155 58.5432L21.5476 60ZM43.9583 59.8216L42.7976 57.0865C49.3259 54.3514 54.5048 49.1461 57.2024 42.6081L60 43.6486V43.827C58.5127 47.4172 56.3298 50.6784 53.5769 53.4233C50.8239 56.1682 47.5552 58.3426 43.9583 59.8216V59.8216ZM7.91667 22.4216L5.14881 21.3216C8.06666 14.0191 13.7433 8.15642 20.9524 5L22.1131 7.73514C15.635 10.5801 10.5362 15.8549 7.91667 22.4216V22.4216ZM57.1131 22.1243C55.764 18.9029 53.792 15.9791 51.31 13.5201C48.828 11.0612 45.8847 9.11556 42.6488 7.79459L43.6905 5C47.3057 6.46396 50.595 8.6284 53.3687 11.3685C56.1424 14.1085 58.3456 17.37 59.8512 20.9649L57.1131 22.1243Z" fill="white"/>
<path d="M27.5597 28.7243C27.4969 28.6513 27.4193 28.5924 27.3321 28.5514C27.245 28.5105 27.1501 28.4883 27.0537 28.4865H23.0359V25.6622H27.2918C27.8104 25.6584 28.3232 25.7713 28.792 25.9926C29.2609 26.214 29.6738 26.5379 30.0002 26.9405L31.0121 28.1892L29.0478 30.5676L27.5597 28.7243ZM34.8216 26.9108C35.1539 26.5075 35.5722 26.1835 36.0459 25.9623C36.5196 25.7412 37.0368 25.6284 37.5597 25.6324H41.7859V28.3676H37.768C37.676 28.3697 37.5856 28.3922 37.5033 28.4333C37.421 28.4744 37.3488 28.5332 37.2918 28.6054L34.3157 32.1135L37.2918 35.6811C37.3516 35.7479 37.4251 35.801 37.5073 35.8369C37.5894 35.8728 37.6784 35.8907 37.768 35.8892H41.7859V38.5351H37.5597C37.0418 38.5347 36.5305 38.4199 36.0622 38.1989C35.594 37.9778 35.1805 37.6561 34.8514 37.2567L32.4109 34.2838L30.0002 37.2567C29.6651 37.6568 29.2463 37.9787 28.7732 38.1995C28.3001 38.4204 27.7843 38.535 27.2621 38.5351H23.0359V35.5622H27.0537C27.1511 35.5669 27.2482 35.5478 27.3364 35.5063C27.4246 35.4648 27.5013 35.4023 27.5597 35.3243L30.3871 32.4703L34.8216 26.9108Z" fill="white"/>
</svg>
