<svg width="85" height="84" viewBox="0 0 85 84" fill="none" xmlns="http://www.w3.org/2000/svg">
<path d="M42.1652 64.365C36.9911 64.3624 31.9779 62.5659 27.9798 59.2816C23.9818 55.9973 21.2461 51.4283 20.239 46.3531C19.232 41.2779 20.0157 36.0106 22.4568 31.4485C24.8979 26.8864 28.8453 23.3118 33.6264 21.3338C38.4075 19.3558 43.7265 19.0967 48.6772 20.6007C53.6279 22.1047 57.904 25.2787 60.7769 29.5819C63.6499 33.8851 64.9418 39.0514 64.4328 44.2004C63.9237 49.3494 61.6451 54.1626 57.9852 57.82C55.9131 59.9043 53.4476 61.5561 50.7318 62.6797C48.0161 63.8032 45.1042 64.3761 42.1652 64.365ZM42.1652 23.135C39.0637 23.1393 36.011 23.9082 33.2775 25.3736C30.544 26.8391 28.214 28.9559 26.4937 31.5366C24.7735 34.1174 23.7161 37.0825 23.4151 40.1694C23.1141 43.2563 23.5789 46.3698 24.7683 49.2342C25.9576 52.0987 27.8349 54.6257 30.2339 56.5915C32.6328 58.5574 35.4795 59.9014 38.5218 60.5047C41.5641 61.108 44.7082 60.9518 47.6758 60.0501C50.6433 59.1484 53.3428 57.5289 55.5352 55.335C58.1738 52.6946 59.9697 49.3308 60.6958 45.6693C61.4218 42.0078 61.0453 38.2132 59.6139 34.7657C58.1824 31.3183 55.7604 28.373 52.6544 26.3027C49.5484 24.2323 45.898 23.1299 42.1652 23.135Z" fill="white"/>
<path d="M29.2852 74.41H28.8302C20.356 70.8129 13.5634 64.1329 9.8252 55.72L13.0452 54.355C16.4062 61.895 22.4955 67.8843 30.0902 71.12H30.3702L29.6002 72.695L29.2852 74.41ZM55.6402 74.2L54.2752 70.98C61.9524 67.7601 68.0428 61.6319 71.2152 53.935L74.5052 55.16V55.37C72.7561 59.5966 70.1891 63.4359 66.9516 66.6674C63.7141 69.8989 59.8701 72.4587 55.6402 74.2ZM13.2552 30.17L10.0002 28.875C13.4316 20.278 20.1073 13.3759 28.5852 9.65997L29.9502 12.88C22.332 16.2293 16.3358 22.4392 13.2552 30.17ZM71.1102 29.82C69.5237 26.0275 67.2046 22.5853 64.2857 19.6905C61.3669 16.7957 57.9056 14.5051 54.1002 12.95L55.3252 9.65997C59.5767 11.3835 63.4449 13.9316 66.7068 17.1574C69.9686 20.3832 72.5596 24.2229 74.3302 28.455L71.1102 29.82Z" fill="white"/>
<path d="M36.3552 37.59C36.2813 37.5041 36.1901 37.4347 36.0876 37.3865C35.985 37.3382 35.8735 37.3122 35.7602 37.31H31.0352V33.985H36.0402C36.65 33.9806 37.253 34.1135 37.8044 34.3741C38.3558 34.6346 38.8414 35.0161 39.2252 35.49L40.4152 36.96L38.1052 39.76L36.3552 37.59ZM44.8952 35.455C45.286 34.9803 45.7779 34.5988 46.335 34.3384C46.8921 34.078 47.5002 33.9453 48.1152 33.95H53.0852V37.17H48.3602C48.252 37.1726 48.1457 37.199 48.0489 37.2474C47.9521 37.2958 47.8671 37.365 47.8002 37.45L44.3002 41.58L47.8002 45.78C47.8705 45.8586 47.9569 45.9212 48.0535 45.9635C48.1501 46.0058 48.2547 46.0267 48.3602 46.025H53.0852V49.14H48.1152C47.5061 49.1395 46.9048 49.0043 46.3542 48.7441C45.8035 48.4839 45.3172 48.1052 44.9302 47.635L42.0602 44.135L39.2252 47.635C38.8311 48.106 38.3386 48.4849 37.7822 48.7449C37.2259 49.005 36.6193 49.1398 36.0052 49.14H31.0352V45.64H35.7602C35.8747 45.6456 35.9888 45.6231 36.0926 45.5742C36.1963 45.5254 36.2865 45.4518 36.3552 45.36L39.6802 42L44.8952 35.455Z" fill="white"/>
</svg>
