<svg width="66" height="66" viewBox="0 0 66 66" fill="none" xmlns="http://www.w3.org/2000/svg">
<path d="M32.9999 55.365C27.8258 55.3624 22.8126 53.5659 18.8145 50.2816C14.8165 46.9973 12.0808 42.4283 11.0738 37.3531C10.0667 32.2779 10.8504 27.0106 13.2915 22.4485C15.7326 17.8864 19.68 14.3118 24.4611 12.3338C29.2422 10.3558 34.5612 10.0967 39.5119 11.6007C44.4626 13.1047 48.7387 16.2787 51.6117 20.5819C54.4846 24.8851 55.7766 30.0514 55.2675 35.2004C54.7585 40.3494 52.4799 45.1626 48.8199 48.82V48.82C46.7478 50.9043 44.2823 52.5561 41.5665 53.6797C38.8508 54.8032 35.9389 55.3761 32.9999 55.365V55.365ZM32.9999 14.135C29.8984 14.1393 26.8457 14.9082 24.1122 16.3736C21.3787 17.8391 19.0487 19.9559 17.3285 22.5366C15.6082 25.1174 14.5508 28.0825 14.2498 31.1694C13.9489 34.2563 14.4136 37.3698 15.603 40.2342C16.7924 43.0987 18.6696 45.6257 21.0686 47.5915C23.4675 49.5574 26.3142 50.9014 29.3565 51.5047C32.3988 52.108 35.5429 51.9518 38.5105 51.0501C41.4781 50.1484 44.1775 48.5289 46.3699 46.335V46.335C49.0085 43.6946 50.8045 40.3308 51.5305 36.6693C52.2565 33.0078 51.88 29.2132 50.4486 25.7657C49.0172 22.3183 46.5952 19.373 43.4891 17.3027C40.3831 15.2323 36.7327 14.1299 32.9999 14.135V14.135Z" fill="white"/>
<path d="M20.1199 65.41H19.6649C11.1907 61.813 4.39807 55.1329 0.659912 46.72L3.87991 45.355C7.24093 52.8951 13.3302 58.8844 20.9249 62.12H21.2049L20.4349 63.695L20.1199 65.41ZM46.4749 65.2L45.1099 61.98C52.7871 58.7601 58.8775 52.632 62.0499 44.935L65.3399 46.16V46.37C63.5908 50.5967 61.0238 54.436 57.7863 57.6675C54.5489 60.8989 50.7048 63.4588 46.4749 65.2V65.2ZM4.08991 21.17L0.834912 19.875C4.2663 11.278 10.942 4.376 19.4199 0.660034L20.7849 3.88003C13.1667 7.22937 7.17053 13.4393 4.08991 21.17V21.17ZM61.9449 20.82C60.3584 17.0276 58.0393 13.5854 55.1204 10.6906C52.2016 7.79575 48.7403 5.50517 44.9349 3.95003L46.1599 0.660034C50.4114 2.38352 54.2796 4.93165 57.5415 8.15746C60.8033 11.3833 63.3943 15.223 65.1649 19.455L61.9449 20.82Z" fill="white"/>
<path d="M27.1901 28.5899C27.1162 28.504 27.025 28.4347 26.9225 28.3864C26.82 28.3382 26.7084 28.3121 26.5951 28.3099H21.8701V24.9849H26.8751C27.485 24.9805 28.088 25.1135 28.6393 25.374C29.1907 25.6346 29.6763 26.016 30.0601 26.49L31.2501 27.96L28.9401 30.7599L27.1901 28.5899ZM35.7301 26.4549C36.1209 25.9802 36.6129 25.5987 37.1699 25.3383C37.727 25.078 38.3352 24.9453 38.9501 24.9499H43.9201V28.1699H39.1951C39.0869 28.1725 38.9806 28.1989 38.8838 28.2473C38.787 28.2957 38.7021 28.3649 38.6351 28.4499L35.1351 32.5799L38.6351 36.7799C38.7054 36.8586 38.7918 36.9212 38.8884 36.9634C38.9851 37.0057 39.0897 37.0267 39.1951 37.0249H43.9201V40.1399H38.9501C38.3411 40.1394 37.7397 40.0042 37.1891 39.7441C36.6385 39.4839 36.1522 39.1051 35.7651 38.6349L32.8951 35.1349L30.0601 38.6349C29.6661 39.106 29.1735 39.4848 28.6172 39.7449C28.0608 40.0049 27.4542 40.1398 26.8401 40.1399H21.8701V36.6399H26.5951C26.7096 36.6456 26.8238 36.623 26.9275 36.5742C27.0313 36.5253 27.1215 36.4518 27.1901 36.3599L30.5151 32.9999L35.7301 26.4549Z" fill="white"/>
</svg>